<svg width="12" height="8" viewBox="0 0 12 8" fill="none" xmlns="http://www.w3.org/2000/svg">
<path d="M6.79913 0.230402C6.74852 0.159345 6.68078 0.101245 6.60177 0.0611086C6.52276 0.0209718 6.43484 4.76837e-07 6.34558 4.76837e-07C6.25632 4.76837e-07 6.1684 0.0209718 6.08939 0.0611086C6.01038 0.101245 5.94265 0.159345 5.89203 0.230402L0.926123 7.16326C0.868643 7.24322 0.834935 7.33688 0.828662 7.43406C0.822389 7.53124 0.843791 7.62823 0.890542 7.71448C0.937293 7.80073 1.00761 7.87294 1.09384 7.92328C1.18008 7.97362 1.27893 8.00015 1.37968 8L11.3115 8C11.412 7.9996 11.5105 7.97272 11.5964 7.92226C11.6823 7.87181 11.7523 7.79967 11.7989 7.71362C11.8456 7.62757 11.8671 7.53086 11.8611 7.43389C11.8551 7.33692 11.8219 7.24335 11.765 7.16326L6.79913 0.230402Z" fill="white"/>
</svg>
