<svg width="10" height="8" viewBox="0 0 10 8" fill="none" xmlns="http://www.w3.org/2000/svg">
<path d="M5.41171 0.230402C5.36584 0.159345 5.30445 0.101245 5.23285 0.0611086C5.16125 0.0209718 5.08157 4.76837e-07 5.00068 4.76837e-07C4.91979 4.76837e-07 4.84011 0.0209718 4.7685 0.0611086C4.6969 0.101245 4.63552 0.159345 4.58965 0.230402L0.0892925 7.16326C0.0372009 7.24322 0.00665379 7.33688 0.000968933 7.43406C-0.00471592 7.53124 0.014679 7.62823 0.0570469 7.71448C0.0994158 7.80073 0.163136 7.87294 0.241287 7.92328C0.319437 7.97362 0.409028 8.00015 0.500325 8L9.50103 8C9.59212 7.9996 9.68138 7.97272 9.75921 7.92226C9.83704 7.87181 9.90051 7.79967 9.94278 7.71362C9.98505 7.62757 10.0045 7.53086 9.99911 7.43389C9.9937 7.33692 9.96361 7.24335 9.91206 7.16326L5.41171 0.230402Z" fill="#2A2D43"/>
</svg>
