<svg width="10" height="10" viewBox="0 0 10 10" fill="none" xmlns="http://www.w3.org/2000/svg">
<path d="M9.90825 8.03344L6.87481 5L9.90825 1.96656C9.96638 1.90772 9.99897 1.82835 9.99897 1.74564C9.99897 1.66294 9.96638 1.58356 9.90825 1.52473L8.47527 0.0917461C8.4463 0.0626662 8.41187 0.0395924 8.37396 0.0238484C8.33605 0.00810444 8.29541 0 8.25436 0C8.21331 0 8.17266 0.00810444 8.13475 0.0238484C8.09684 0.0395924 8.06242 0.0626662 8.03344 0.0917461L5 3.12519L1.96656 0.0917461C1.90796 0.0331673 1.8285 0.000259611 1.74564 0.000259611C1.66279 0.000259611 1.58332 0.0331673 1.52473 0.0917461L0.0917461 1.52473C0.0626662 1.5537 0.0395924 1.58813 0.0238484 1.62604C0.00810444 1.66395 0 1.70459 0 1.74564C0 1.78669 0.00810444 1.82734 0.0238484 1.86525C0.0395924 1.90316 0.0626662 1.93758 0.0917461 1.96656L3.12519 5L0.0917461 8.03344C0.0331673 8.09204 0.000259611 8.1715 0.000259611 8.25436C0.000259611 8.33721 0.0331673 8.41668 0.0917461 8.47527L1.52473 9.90825C1.5537 9.93733 1.58813 9.96041 1.62604 9.97615C1.66395 9.9919 1.70459 10 1.74564 10C1.78669 10 1.82734 9.9919 1.86525 9.97615C1.90316 9.96041 1.93758 9.93733 1.96656 9.90825L5 6.87481L8.03344 9.90825C8.09204 9.96683 8.1715 9.99974 8.25436 9.99974C8.33721 9.99974 8.41668 9.96683 8.47527 9.90825L9.90825 8.47527C9.93733 8.4463 9.96041 8.41187 9.97615 8.37396C9.9919 8.33605 10 8.29541 10 8.25436C10 8.21331 9.9919 8.17266 9.97615 8.13475C9.96041 8.09684 9.93733 8.06242 9.90825 8.03344Z" fill="white"/>
</svg>
