<svg width="11" height="10" viewBox="0 0 11 10" fill="none" xmlns="http://www.w3.org/2000/svg">
<path d="M9.90972 8.03344L6.87628 5L9.90972 1.96656C9.96784 1.90772 10.0004 1.82835 10.0004 1.74564C10.0004 1.66294 9.96784 1.58356 9.90972 1.52473L8.47674 0.0917461C8.44777 0.0626662 8.41334 0.0395924 8.37543 0.0238484C8.33752 0.00810444 8.29687 0 8.25582 0C8.21478 0 8.17413 0.00810444 8.13622 0.0238484C8.09831 0.0395924 8.06388 0.0626662 8.03491 0.0917461L5.00146 3.12519L1.96802 0.0917461C1.90943 0.0331673 1.82996 0.000259611 1.74711 0.000259611C1.66425 0.000259611 1.58479 0.0331673 1.52619 0.0917461L0.093211 1.52473C0.064131 1.5537 0.0410573 1.58813 0.0253133 1.62604C0.00956929 1.66395 0.00146484 1.70459 0.00146484 1.74564C0.00146484 1.78669 0.00956929 1.82734 0.0253133 1.86525C0.0410573 1.90316 0.064131 1.93758 0.093211 1.96656L3.12665 5L0.093211 8.03344C0.0346322 8.09204 0.00172445 8.1715 0.00172445 8.25436C0.00172445 8.33721 0.0346322 8.41668 0.093211 8.47527L1.52619 9.90825C1.55516 9.93733 1.58959 9.96041 1.6275 9.97615C1.66541 9.9919 1.70606 10 1.74711 10C1.78816 10 1.8288 9.9919 1.86671 9.97615C1.90462 9.96041 1.93905 9.93733 1.96802 9.90825L5.00146 6.87481L8.03491 9.90825C8.0935 9.96683 8.17297 9.99974 8.25582 9.99974C8.33868 9.99974 8.41814 9.96683 8.47674 9.90825L9.90972 8.47527C9.9388 8.4463 9.96187 8.41187 9.97762 8.37396C9.99336 8.33605 10.0015 8.29541 10.0015 8.25436C10.0015 8.21331 9.99336 8.17266 9.97762 8.13475C9.96187 8.09684 9.9388 8.06242 9.90972 8.03344Z" fill="white"/>
</svg>
