<svg width="24" height="24" viewBox="0 0 24 24" fill="none" xmlns="http://www.w3.org/2000/svg">
<path d="M6.28571 13.5455C6.28571 13.169 6.14621 12.8477 5.86719 12.5813C5.58817 12.315 5.25149 12.1818 4.85714 12.1818C4.4628 12.1818 4.12612 12.315 3.8471 12.5813C3.56808 12.8477 3.42857 13.169 3.42857 13.5455C3.42857 13.9219 3.56808 14.2433 3.8471 14.5096C4.12612 14.7759 4.4628 14.9091 4.85714 14.9091C5.25149 14.9091 5.58817 14.7759 5.86719 14.5096C6.14621 14.2433 6.28571 13.9219 6.28571 13.5455ZM8.42857 8.77273C8.42857 8.39631 8.28906 8.07493 8.01004 7.80859C7.73103 7.54226 7.39435 7.40909 7 7.40909C6.60565 7.40909 6.26897 7.54226 5.98996 7.80859C5.71094 8.07493 5.57143 8.39631 5.57143 8.77273C5.57143 9.14915 5.71094 9.47053 5.98996 9.73686C6.26897 10.0032 6.60565 10.1364 7 10.1364C7.39435 10.1364 7.73103 10.0032 8.01004 9.73686C8.28906 9.47053 8.42857 9.14915 8.42857 8.77273ZM13.2054 13.897L14.3326 9.82742C14.3772 9.64276 14.3493 9.47053 14.2489 9.31072C14.1484 9.15092 14.0052 9.04617 13.8192 8.99645C13.6332 8.94673 13.4546 8.96982 13.2835 9.0657C13.1124 9.16158 13.0007 9.30185 12.9487 9.48651L11.8214 13.5561C11.375 13.5916 10.9769 13.7461 10.6272 14.0195C10.2775 14.293 10.0432 14.6428 9.92411 15.0689C9.7753 15.6158 9.8497 16.1342 10.1473 16.6243C10.4449 17.1143 10.8802 17.4304 11.4531 17.5724C12.026 17.7145 12.5692 17.6435 13.0826 17.3594C13.596 17.0753 13.9271 16.6598 14.0759 16.1129C14.1949 15.6868 14.1726 15.2713 14.0089 14.8665C13.8452 14.4616 13.5774 14.1385 13.2054 13.897ZM20.5714 13.5455C20.5714 13.169 20.4319 12.8477 20.1529 12.5813C19.8739 12.315 19.5372 12.1818 19.1429 12.1818C18.7485 12.1818 18.4118 12.315 18.1328 12.5813C17.8538 12.8477 17.7143 13.169 17.7143 13.5455C17.7143 13.9219 17.8538 14.2433 18.1328 14.5096C18.4118 14.7759 18.7485 14.9091 19.1429 14.9091C19.5372 14.9091 19.8739 14.7759 20.1529 14.5096C20.4319 14.2433 20.5714 13.9219 20.5714 13.5455ZM13.4286 6.72727C13.4286 6.35085 13.2891 6.02947 13.01 5.76314C12.731 5.4968 12.3943 5.36364 12 5.36364C11.6057 5.36364 11.269 5.4968 10.99 5.76314C10.7109 6.02947 10.5714 6.35085 10.5714 6.72727C10.5714 7.10369 10.7109 7.42507 10.99 7.69141C11.269 7.95774 11.6057 8.09091 12 8.09091C12.3943 8.09091 12.731 7.95774 13.01 7.69141C13.2891 7.42507 13.4286 7.10369 13.4286 6.72727ZM18.4286 8.77273C18.4286 8.39631 18.2891 8.07493 18.01 7.80859C17.731 7.54226 17.3943 7.40909 17 7.40909C16.6057 7.40909 16.269 7.54226 15.99 7.80859C15.7109 8.07493 15.5714 8.39631 15.5714 8.77273C15.5714 9.14915 15.7109 9.47053 15.99 9.73686C16.269 10.0032 16.6057 10.1364 17 10.1364C17.3943 10.1364 17.731 10.0032 18.01 9.73686C18.2891 9.47053 18.4286 9.14915 18.4286 8.77273ZM22 13.5455C22 15.3991 21.4754 17.1143 20.4263 18.6911C20.285 18.897 20.0841 19 19.8237 19H4.17634C3.91592 19 3.71503 18.897 3.57366 18.6911C2.52455 17.1215 2 15.4063 2 13.5455C2 12.2528 2.26414 11.017 2.79241 9.83807C3.32068 8.65909 4.03125 7.64347 4.92411 6.79119C5.81696 5.93892 6.88095 5.26065 8.11607 4.75639C9.35119 4.25213 10.6458 4 12 4C13.3542 4 14.6488 4.25213 15.8839 4.75639C17.119 5.26065 18.183 5.93892 19.0759 6.79119C19.9688 7.64347 20.6793 8.65909 21.2076 9.83807C21.7359 11.017 22 12.2528 22 13.5455Z" fill="#2A2D43"/>
</svg>
