<svg width="14" height="14" viewBox="0 0 14 14" fill="none" xmlns="http://www.w3.org/2000/svg">
<path d="M5.83317 3.50008H8.1665C8.1665 3.19066 8.04359 2.89392 7.8248 2.67512C7.606 2.45633 7.30926 2.33341 6.99984 2.33341C6.69042 2.33341 6.39367 2.45633 6.17488 2.67512C5.95609 2.89392 5.83317 3.19066 5.83317 3.50008ZM4.6665 3.50008C4.6665 2.88124 4.91234 2.28775 5.34992 1.85017C5.78751 1.41258 6.381 1.16675 6.99984 1.16675C7.61868 1.16675 8.21217 1.41258 8.64975 1.85017C9.08734 2.28775 9.33317 2.88124 9.33317 3.50008H12.2498C12.4045 3.50008 12.5529 3.56154 12.6623 3.67094C12.7717 3.78033 12.8332 3.92871 12.8332 4.08342C12.8332 4.23812 12.7717 4.3865 12.6623 4.49589C12.5529 4.60529 12.4045 4.66675 12.2498 4.66675H11.7353L11.2185 10.6984C11.1688 11.2809 10.9023 11.8234 10.4718 12.2188C10.0412 12.6141 9.47789 12.8335 8.89334 12.8334H5.10634C4.52178 12.8335 3.9585 12.6141 3.52792 12.2188C3.09735 11.8234 2.83086 11.2809 2.78117 10.6984L2.26434 4.66675H1.74984C1.59513 4.66675 1.44675 4.60529 1.33736 4.49589C1.22796 4.3865 1.1665 4.23812 1.1665 4.08342C1.1665 3.92871 1.22796 3.78033 1.33736 3.67094C1.44675 3.56154 1.59513 3.50008 1.74984 3.50008H4.6665ZM8.74984 7.00008C8.74984 6.84537 8.68838 6.697 8.57898 6.5876C8.46959 6.47821 8.32121 6.41675 8.1665 6.41675C8.01179 6.41675 7.86342 6.47821 7.75403 6.5876C7.64463 6.697 7.58317 6.84537 7.58317 7.00008V9.33342C7.58317 9.48812 7.64463 9.6365 7.75403 9.74589C7.86342 9.85529 8.01179 9.91675 8.1665 9.91675C8.32121 9.91675 8.46959 9.85529 8.57898 9.74589C8.68838 9.6365 8.74984 9.48812 8.74984 9.33342V7.00008ZM5.83317 6.41675C5.67846 6.41675 5.53009 6.47821 5.42069 6.5876C5.3113 6.697 5.24984 6.84537 5.24984 7.00008V9.33342C5.24984 9.48812 5.3113 9.6365 5.42069 9.74589C5.53009 9.85529 5.67846 9.91675 5.83317 9.91675C5.98788 9.91675 6.13625 9.85529 6.24565 9.74589C6.35505 9.6365 6.4165 9.48812 6.4165 9.33342V7.00008C6.4165 6.84537 6.35505 6.697 6.24565 6.5876C6.13625 6.47821 5.98788 6.41675 5.83317 6.41675Z" fill="white"/>
</svg>
