<svg width="13" height="13" viewBox="0 0 13 13" fill="none" xmlns="http://www.w3.org/2000/svg">
<path d="M3 11L6.0162 10.9886L12.5995 3.76877C12.8578 3.4827 13 3.10279 13 2.69866C13 2.29452 12.8578 1.91461 12.5995 1.62854L11.5155 0.428254C10.9988 -0.143887 10.0973 -0.140859 9.58465 0.425984L3 7.64737V11ZM10.549 1.49837L11.6351 2.69639L10.5436 3.89364L9.45957 2.69412L10.549 1.49837ZM4.36696 8.27855L8.48835 3.75818L9.57235 4.95846L5.45164 9.47732L4.36696 9.4811V8.27855Z" fill="white"/>
<path d="M1.44444 13H11.5556C12.3522 13 13 12.3522 13 11.5556V5.29533L11.5556 6.73978V11.5556H3.72522C3.70644 11.5556 3.68694 11.5628 3.66817 11.5628C3.64433 11.5628 3.6205 11.5563 3.59594 11.5556H1.44444V1.44444H6.3895L7.83394 0H1.44444C0.647833 0 0 0.647833 0 1.44444V11.5556C0 12.3522 0.647833 13 1.44444 13Z" fill="white"/>
</svg>
