<svg width="31" height="31" viewBox="0 0 31 31" fill="none" xmlns="http://www.w3.org/2000/svg">
<path d="M15.4014 12.0661C14.5311 12.0661 13.6965 12.4118 13.0812 13.0271C12.4658 13.6425 12.1201 14.4771 12.1201 15.3473C12.1201 15.4434 12.1245 15.5386 12.1327 15.6327L15.6867 12.0787C15.5927 12.0705 15.4978 12.0661 15.4014 12.0661ZM4.54044 25.4969L5.792 26.7473C5.83595 26.7912 5.89555 26.8159 5.95768 26.8159C6.01981 26.8159 6.0794 26.7912 6.12335 26.7473L9.32608 23.5437C11.0929 24.4466 13.0789 24.8981 15.2842 24.8981C20.915 24.8981 25.1162 21.9655 27.8877 16.1002C27.9991 15.8644 28.0569 15.6067 28.0569 15.3459C28.0569 15.085 27.9991 14.8273 27.8877 14.5915C26.7803 12.2588 25.4468 10.3892 23.8872 8.98257L26.9865 5.88442C27.0304 5.84048 27.0551 5.78088 27.0551 5.71875C27.0551 5.65662 27.0304 5.59702 26.9865 5.55308L25.7358 4.30239C25.6919 4.25847 25.6323 4.2338 25.5702 4.2338C25.508 4.2338 25.4484 4.25847 25.4045 4.30239L4.54044 25.1653C4.51865 25.1871 4.50136 25.2129 4.48957 25.2414C4.47777 25.2698 4.4717 25.3003 4.4717 25.3311C4.4717 25.3619 4.47777 25.3924 4.48957 25.4209C4.50136 25.4493 4.51865 25.4752 4.54044 25.4969ZM20.5576 15.3473C20.5577 16.2379 20.3271 17.1134 19.8883 17.8884C19.4495 18.6634 18.8174 19.3115 18.0536 19.7696C17.2899 20.2277 16.4205 20.4802 15.5302 20.5024C14.6398 20.5247 13.7589 20.3159 12.9732 19.8965L14.3977 18.4721C14.9721 18.6561 15.5861 18.6782 16.1723 18.5362C16.7586 18.3941 17.2943 18.0933 17.7208 17.6668C18.1473 17.2403 18.4481 16.7045 18.5902 16.1183C18.7323 15.5321 18.7101 14.9181 18.5262 14.3436L19.9506 12.9192C20.3503 13.666 20.5589 14.5002 20.5576 15.3473Z" fill="#2A2D43"/>
<path d="M2.68066 16.103C3.71191 18.2749 4.93935 20.0459 6.36298 21.416L10.5858 17.1929C10.2299 16.2624 10.151 15.2487 10.3587 14.2743C10.5664 13.2999 11.0518 12.4065 11.7562 11.702C12.4607 10.9976 13.3541 10.5122 14.3285 10.3045C15.3029 10.0968 16.3166 10.1757 17.2471 10.5316L20.8289 6.9498C19.1672 6.18086 17.3189 5.79638 15.2842 5.79638C9.65332 5.79638 5.45214 8.729 2.68066 14.5942C2.56924 14.8301 2.51145 15.0878 2.51145 15.3486C2.51145 15.6095 2.56924 15.8671 2.68066 16.103Z" fill="#2A2D43"/>
</svg>
