<svg width="16" height="16" viewBox="0 0 16 16" fill="none" xmlns="http://www.w3.org/2000/svg">
<path fill-rule="evenodd" clip-rule="evenodd" d="M1.3335 8.00008C1.9635 4.95741 4.70883 2.66675 8.00016 2.66675C11.2915 2.66675 14.0368 4.95741 14.6668 8.00008C14.0368 11.0427 11.2915 13.3334 8.00016 13.3334C4.70883 13.3334 1.9635 11.0427 1.3335 8.00008ZM8.00016 11.3334C8.88422 11.3334 9.73206 10.9822 10.3572 10.3571C10.9823 9.73198 11.3335 8.88414 11.3335 8.00008C11.3335 7.11603 10.9823 6.26818 10.3572 5.64306C9.73206 5.01794 8.88422 4.66675 8.00016 4.66675C7.11611 4.66675 6.26826 5.01794 5.64314 5.64306C5.01802 6.26818 4.66683 7.11603 4.66683 8.00008C4.66683 8.88414 5.01802 9.73198 5.64314 10.3571C6.26826 10.9822 7.11611 11.3334 8.00016 11.3334ZM8.00016 10.0001C8.5306 10.0001 9.0393 9.78937 9.41438 9.4143C9.78945 9.03922 10.0002 8.53051 10.0002 8.00008C10.0002 7.46965 9.78945 6.96094 9.41438 6.58587C9.0393 6.21079 8.5306 6.00008 8.00016 6.00008C7.46973 6.00008 6.96102 6.21079 6.58595 6.58587C6.21088 6.96094 6.00016 7.46965 6.00016 8.00008C6.00016 8.53051 6.21088 9.03922 6.58595 9.4143C6.96102 9.78937 7.46973 10.0001 8.00016 10.0001Z" fill="white"/>
</svg>
