<svg width="28" height="19" viewBox="0 0 28 19" fill="none" xmlns="http://www.w3.org/2000/svg">
<path d="M13.9284 0.347168C7.85563 0.347168 2.66952 4.1244 0.568359 9.45626C2.66952 14.7881 7.85563 18.5653 13.9284 18.5653C20.0011 18.5653 25.1872 14.7881 27.2884 9.45626C25.1872 4.1244 20.0011 0.347168 13.9284 0.347168ZM13.9284 15.529C10.5762 15.529 7.85563 12.8084 7.85563 9.45626C7.85563 6.10411 10.5762 3.38353 13.9284 3.38353C17.2805 3.38353 20.0011 6.10411 20.0011 9.45626C20.0011 12.8084 17.2805 15.529 13.9284 15.529ZM13.9284 5.81262C11.9122 5.81262 10.2847 7.44011 10.2847 9.45626C10.2847 11.4724 11.9122 13.0999 13.9284 13.0999C15.9445 13.0999 17.572 11.4724 17.572 9.45626C17.572 7.44011 15.9445 5.81262 13.9284 5.81262Z" fill="#2A2D43"/>
</svg>
