<svg width="21" height="22" viewBox="0 0 21 22" fill="none" xmlns="http://www.w3.org/2000/svg">
<path d="M16.9366 15.7756C16.4074 14.8609 15.7707 13.121 15.7707 10.0448V9.40799C15.7707 5.43493 12.5868 2.17936 8.66759 2.15245H8.61377C7.67274 2.15363 6.74115 2.34014 5.8722 2.70135C5.00325 3.06256 4.21395 3.59138 3.54937 4.25762C2.88479 4.92387 2.35795 5.71448 1.99892 6.58434C1.63989 7.45419 1.45571 8.38624 1.45689 9.32728V10.0448C1.45689 13.121 0.82012 14.8609 0.290976 15.7756C0.163005 15.9936 0.0948907 16.2416 0.0935268 16.4944C0.0921628 16.7471 0.157598 16.9958 0.283209 17.2152C0.40882 17.4345 0.59015 17.6168 0.808848 17.7436C1.02755 17.8703 1.27585 17.9371 1.52863 17.9371H5.02636C5.02636 18.8885 5.40432 19.801 6.07709 20.4737C6.74986 21.1465 7.66233 21.5245 8.61377 21.5245C9.56522 21.5245 10.4777 21.1465 11.1505 20.4737C11.8232 19.801 12.2012 18.8885 12.2012 17.9371H15.6989C15.9516 17.9387 16.2003 17.8731 16.4193 17.747C16.6384 17.6209 16.82 17.4389 16.9455 17.2196C17.07 16.999 17.1347 16.7497 17.1331 16.4964C17.1316 16.2431 17.0638 15.9947 16.9366 15.7756ZM8.61377 20.0895C8.04364 20.0872 7.49752 19.8596 7.09437 19.4565C6.69122 19.0533 6.46369 18.5072 6.46133 17.9371H10.7662C10.7639 18.5072 10.5363 19.0533 10.1332 19.4565C9.73003 19.8596 9.18391 20.0872 8.61377 20.0895Z" fill="#2A2D43"/>
<circle cx="14.3536" cy="5.73986" r="5.73986" fill="#F2385F"/>
</svg>
