<svg width="24" height="24" viewBox="0 0 24 24" fill="none" xmlns="http://www.w3.org/2000/svg">
<path d="M20.1815 5H3.81854C3.36632 5 3 5.36872 3 5.82391V18.9996C3 19.4548 3.36632 19.8235 3.81854 19.8235H20.1815C20.6337 19.8235 21 19.4548 21 18.9996V5.82391C21 5.36872 20.6337 5 20.1815 5ZM10.0914 14.8819V13.2347H13.9092V14.8819H10.0914ZM13.9092 16.5291V18.1763H10.0914V16.5291H13.9092ZM13.9092 9.94097V11.5882H10.0914V9.94159L13.9092 9.94097ZM15.5457 9.94097H19.3635V11.5882H15.5457V9.94097ZM8.45492 9.94097V11.5882H4.63709V9.94159L8.45492 9.94097ZM4.63709 13.2354H8.45553V14.8826H4.63709V13.2354ZM15.5457 13.2354H19.3635V14.8826H15.5457V13.2354ZM4.63709 16.5291H8.45553V18.1763H4.63709V16.5291ZM15.5457 18.1757V16.5285H19.3635V18.1757H15.5457Z" fill="#2A2D43"/>
</svg>
