<svg width="409" height="229" viewBox="0 0 409 229" fill="none" xmlns="http://www.w3.org/2000/svg">
<g clip-path="url(#clip0_1_543)">
<path opacity="0.86" d="M155.21 228.93L340.74 228.41C356.62 228.41 381.8 222.09 391.46 210.22C412.14 184.81 426.13 120.12 356.67 95C264.86 61.79 313.12 0 232.27 0C150.13 0 173.27 47.34 145.15 49.67C133.15 50.67 116.96 50.59 101.02 50.1C75.66 49.31 55.74 70 59.79 93.1C60.96 99.76 61.24 105.86 59.92 110.32C54.28 129.38 15.79 120.32 8.06002 166.32C2.53002 199.18 28.8301 228.95 58.7801 228.95L155.21 228.93Z" fill="#EEEFF0"/>
<path d="M28.2848 112.567C37.1129 107.239 39.9508 95.7634 34.6232 86.9352C29.2956 78.107 17.82 75.2693 8.99183 80.5969C0.163653 85.9245 -2.67411 97.4 2.65348 106.228C7.98108 115.056 19.4566 117.894 28.2848 112.567Z" fill="#EEEFF0"/>
<path d="M389.439 51.3646C395.393 34.4491 386.506 15.91 369.591 9.95639C352.675 4.0028 334.136 12.8892 328.182 29.8048C322.229 46.7203 331.115 65.2594 348.031 71.213C364.946 77.1666 383.485 68.2802 389.439 51.3646Z" fill="#EEEFF0"/>
<path d="M337.68 39.6C337.039 35.5106 335.656 31.5727 333.6 27.98C333.39 27.6295 333.094 27.3384 332.74 27.1343C332.386 26.9303 331.985 26.8201 331.577 26.814C331.168 26.808 330.765 26.9065 330.405 27.1C330.045 27.2936 329.74 27.5758 329.52 27.92L324.42 35.92L330.32 39.67C330.551 39.8232 330.713 40.0607 330.771 40.3318C330.829 40.6028 330.778 40.8858 330.63 41.12C330.561 41.2402 330.467 41.3447 330.355 41.4268C330.244 41.5089 330.116 41.5669 329.98 41.597C329.845 41.6271 329.705 41.6287 329.569 41.6016C329.433 41.5746 329.304 41.5196 329.19 41.44L323.3 37.68L320.99 41.33L326.87 45.08C326.99 45.1493 327.095 45.2428 327.177 45.3546C327.259 45.4664 327.317 45.5941 327.347 45.7296C327.377 45.865 327.379 46.0052 327.352 46.1413C327.325 46.2774 327.27 46.4063 327.19 46.52C327.121 46.6402 327.027 46.7447 326.915 46.8268C326.804 46.9089 326.676 46.9669 326.54 46.997C326.405 47.0271 326.265 47.0287 326.129 47.0016C325.993 46.9746 325.864 46.9196 325.75 46.84L319.86 43.09L318.08 45.9L323.96 49.65C324.08 49.7193 324.185 49.8128 324.267 49.9246C324.349 50.0364 324.407 50.1641 324.437 50.2995C324.467 50.435 324.469 50.5752 324.442 50.7113C324.415 50.8474 324.36 50.9763 324.28 51.09C324.211 51.2102 324.117 51.3147 324.005 51.3968C323.894 51.4789 323.766 51.5369 323.63 51.567C323.495 51.5971 323.355 51.5987 323.219 51.5716C323.083 51.5446 322.954 51.4896 322.84 51.41L317 47.7L314.9 51C313.423 53.3864 311.181 55.2018 308.54 56.15C306.807 56.7645 304.955 56.974 303.128 56.7625C301.302 56.551 299.547 55.9242 298 54.93L271.25 37.93L272.37 36.17L291.19 48.17L298.91 36.03C298.688 36.0483 298.466 35.992 298.28 35.87L291.52 31.57C291.287 31.4184 291.124 31.1815 291.064 30.9104C291.004 30.6392 291.053 30.3554 291.2 30.12C291.352 29.8874 291.588 29.7235 291.86 29.6637C292.131 29.6038 292.415 29.6528 292.65 29.8L299.4 34.11C299.59 34.2292 299.734 34.4088 299.81 34.62L301.81 31.46C301.588 31.4783 301.366 31.422 301.18 31.3L294.43 27C294.195 26.8501 294.03 26.6132 293.97 26.3413C293.91 26.0693 293.96 25.7847 294.11 25.55C294.179 25.4298 294.273 25.3253 294.385 25.2432C294.496 25.161 294.624 25.1031 294.76 25.073C294.895 25.0429 295.035 25.0413 295.171 25.0683C295.307 25.0954 295.436 25.1504 295.55 25.23L302.31 29.54C302.496 29.6594 302.639 29.8344 302.72 30.04L305.25 26.04C305.031 26.0561 304.814 25.9998 304.63 25.88L297.87 21.58C297.635 21.4301 297.47 21.1932 297.41 20.9213C297.35 20.6493 297.4 20.3647 297.55 20.13C297.619 20.0098 297.713 19.9053 297.825 19.8232C297.936 19.7411 298.064 19.6831 298.2 19.653C298.335 19.6229 298.475 19.6213 298.611 19.6483C298.747 19.6754 298.876 19.7304 298.99 19.81L305.75 24.12C305.933 24.2382 306.076 24.409 306.16 24.61L313.16 13.68C313.25 13.5343 313.305 13.3694 313.319 13.1988C313.333 13.0281 313.308 12.8564 313.243 12.6977C313.179 12.5389 313.078 12.3975 312.949 12.285C312.82 12.1725 312.666 12.092 312.5 12.05C306.876 10.6406 300.983 10.7026 295.39 12.23C287.247 14.476 280.234 19.6789 275.723 26.8212C271.212 33.9636 269.528 42.5317 271 50.85C271.722 54.8475 273.158 58.6821 275.24 62.17C274.68 62.7943 274.172 63.4632 273.72 64.17L216.61 153.77C214.403 157.16 213.539 161.251 214.189 165.244C214.838 169.237 216.953 172.844 220.12 175.36C221.88 176.728 223.907 177.714 226.071 178.253C228.234 178.792 230.487 178.873 232.683 178.491C234.88 178.109 236.972 177.272 238.826 176.033C240.681 174.795 242.255 173.183 243.45 171.3L300.75 81.4C301.326 80.493 301.812 79.5317 302.2 78.53C306.089 78.756 309.989 78.3163 313.73 77.23C321.599 74.9163 328.362 69.8282 332.766 62.9089C337.17 55.9896 338.916 47.7083 337.68 39.6Z" fill="#F2385F"/>
<path d="M178.47 96.21L163.47 93.72C162.753 93.599 162.079 93.2979 161.51 92.8448C160.942 92.3918 160.498 91.8017 160.22 91.13L157.71 85.08C157.43 84.4069 157.326 83.6735 157.409 82.9491C157.491 82.2248 157.756 81.5333 158.18 80.94L167 68.6C167.59 67.7747 167.868 66.7666 167.783 65.7556C167.699 64.7445 167.258 63.7963 166.54 63.08L159.38 55.92C158.663 55.199 157.713 54.7567 156.7 54.6724C155.686 54.5881 154.676 54.8673 153.85 55.46L141.53 64.27C140.936 64.6911 140.244 64.9549 139.52 65.0371C138.797 65.1193 138.064 65.0171 137.39 64.74L131.39 62.23C130.717 61.9512 130.126 61.5056 129.673 60.9353C129.22 60.3649 128.919 59.6886 128.8 58.97L126.31 44.03C126.144 43.0286 125.627 42.1188 124.853 41.463C124.078 40.8072 123.095 40.4482 122.08 40.45H111.95C110.935 40.4482 109.952 40.8072 109.177 41.463C108.403 42.1188 107.886 43.0286 107.72 44.03L105.23 58.97C105.111 59.6886 104.81 60.3649 104.357 60.9353C103.904 61.5056 103.313 61.9512 102.64 62.23L96.64 64.74C95.9663 65.0171 95.2334 65.1193 94.5096 65.0371C93.7858 64.9549 93.0945 64.6911 92.5 64.27L80.17 55.46C79.3454 54.8681 78.3369 54.5892 77.3253 54.6735C76.3137 54.7578 75.3653 55.1997 74.65 55.92L67.49 63.08C66.7652 63.7915 66.3177 64.738 66.2279 65.7497C66.1381 66.7614 66.4118 67.772 67 68.6L75.81 80.93C76.2337 81.5233 76.4991 82.2148 76.5814 82.9391C76.6636 83.6635 76.5599 84.3969 76.28 85.07L73.77 91.12C73.4896 91.7919 73.0436 92.3819 72.4735 92.8348C71.9035 93.2877 71.2279 93.5888 70.51 93.71L55.57 96.2C54.5686 96.366 53.6588 96.8826 53.003 97.6574C52.3472 98.4322 51.9882 99.4149 51.99 100.43V110.6C51.9902 111.615 52.35 112.596 53.0054 113.371C53.6608 114.145 54.5695 114.662 55.57 114.83L70.01 117.24C70.7773 117.359 71.4965 117.688 72.0879 118.191C72.6793 118.695 73.1196 119.352 73.36 120.09C74.024 122.244 74.8532 124.344 75.84 126.37C76.1556 127.053 76.284 127.807 76.2119 128.556C76.1399 129.304 75.87 130.02 75.43 130.63L67 142.39C66.4073 143.216 66.1281 144.226 66.2124 145.24C66.2967 146.253 66.739 147.203 67.46 147.92L74.62 155.08C75.3363 155.798 76.2845 156.239 77.2955 156.323C78.3066 156.408 79.3147 156.13 80.14 155.54L91.65 147.32C92.2731 146.865 93.0092 146.589 93.7781 146.524C94.5471 146.459 95.3192 146.606 96.01 146.95C98.1422 148.055 100.359 148.988 102.64 149.74C103.365 149.993 104.007 150.439 104.499 151.029C104.99 151.619 105.312 152.331 105.43 153.09L107.74 166.97C107.906 167.971 108.423 168.881 109.197 169.537C109.972 170.193 110.955 170.552 111.97 170.55H122.1C123.115 170.552 124.098 170.193 124.873 169.537C125.647 168.881 126.164 167.971 126.33 166.97L128.64 153.09C128.758 152.331 129.08 151.619 129.571 151.029C130.063 150.439 130.705 149.993 131.43 149.74C133.711 148.988 135.928 148.055 138.06 146.95C138.748 146.605 139.518 146.455 140.286 146.519C141.053 146.582 141.788 146.856 142.41 147.31L153.9 155.6C154.728 156.185 155.736 156.458 156.746 156.372C157.756 156.286 158.703 155.846 159.42 155.13L166.58 147.97C167.297 147.251 167.737 146.301 167.821 145.289C167.906 144.277 167.629 143.268 167.04 142.44L158.61 130.6C158.17 129.99 157.9 129.274 157.828 128.526C157.756 127.777 157.884 127.023 158.2 126.34C159.183 124.312 160.012 122.213 160.68 120.06C160.92 119.322 161.361 118.665 161.952 118.161C162.543 117.658 163.263 117.329 164.03 117.21L178.47 114.8C179.471 114.632 180.379 114.115 181.035 113.341C181.69 112.566 182.05 111.585 182.05 110.57V100.44C182.052 99.4249 181.693 98.4422 181.037 97.6674C180.381 96.8926 179.471 96.376 178.47 96.21ZM117 133.66C113.302 133.66 109.641 132.932 106.225 131.516C102.809 130.101 99.7055 128.027 97.0914 125.412C94.4773 122.797 92.404 119.692 90.9899 116.276C89.5759 112.859 88.8487 109.198 88.85 105.5C88.85 98.0342 91.8158 90.8741 97.095 85.595C102.374 80.3158 109.534 77.35 117 77.35C120.698 77.3487 124.359 78.0759 127.776 79.4899C131.192 80.904 134.296 82.9773 136.912 85.5914C139.527 88.2055 141.601 91.3092 143.016 94.7252C144.432 98.1411 145.16 101.802 145.16 105.5C145.16 112.969 142.193 120.131 136.912 125.412C131.631 130.693 124.469 133.66 117 133.66Z" fill="#F2385F"/>
<path d="M326.5 145.12L319.77 144C319.446 143.945 319.141 143.809 318.884 143.605C318.627 143.4 318.426 143.134 318.3 142.83L317.17 140.11C317.051 139.806 317.007 139.478 317.044 139.154C317.081 138.83 317.196 138.519 317.38 138.25L321.38 132.69C321.645 132.319 321.77 131.866 321.731 131.411C321.693 130.957 321.494 130.531 321.17 130.21L317.95 126.98C317.626 126.657 317.198 126.459 316.742 126.423C316.286 126.386 315.831 126.513 315.46 126.78L309.91 130.78C309.644 130.972 309.333 131.092 309.007 131.128C308.682 131.165 308.352 131.118 308.05 130.99L305.32 129.86C305.018 129.736 304.753 129.537 304.55 129.281C304.347 129.026 304.212 128.722 304.16 128.4L303 121.6C302.927 121.149 302.695 120.738 302.347 120.441C301.999 120.145 301.557 119.981 301.1 119.98H296.54C296.082 119.981 295.638 120.144 295.289 120.44C294.939 120.737 294.706 121.148 294.63 121.6L293.51 128.33C293.457 128.653 293.321 128.957 293.116 129.213C292.911 129.469 292.644 129.667 292.34 129.79L289.62 130.92C289.318 131.048 288.988 131.095 288.663 131.058C288.337 131.022 288.026 130.902 287.76 130.71L282.21 126.71C281.839 126.443 281.384 126.316 280.928 126.353C280.472 126.389 280.044 126.587 279.72 126.91L276.49 130.14C276.168 130.462 275.971 130.889 275.934 131.343C275.897 131.798 276.024 132.25 276.29 132.62L280.29 138.18C280.482 138.446 280.602 138.757 280.638 139.082C280.675 139.408 280.628 139.738 280.5 140.04L279.38 142.76C279.254 143.064 279.053 143.33 278.796 143.535C278.539 143.739 278.234 143.875 277.91 143.93L271.18 145.05C270.729 145.126 270.319 145.36 270.024 145.709C269.729 146.059 269.568 146.502 269.57 146.96V151.6C269.569 152.056 269.73 152.498 270.025 152.846C270.32 153.195 270.73 153.426 271.18 153.5L277.68 154.59C278.026 154.642 278.35 154.789 278.617 155.015C278.884 155.241 279.082 155.537 279.19 155.87C279.49 156.841 279.865 157.787 280.31 158.7C280.453 159.008 280.51 159.348 280.477 159.686C280.443 160.024 280.32 160.346 280.12 160.62L276.33 165.93C276.063 166.301 275.936 166.756 275.973 167.212C276.009 167.668 276.207 168.096 276.53 168.42L279.76 171.64C280.083 171.965 280.51 172.164 280.966 172.202C281.423 172.241 281.877 172.116 282.25 171.85L287.43 168.15C287.714 167.938 288.052 167.809 288.406 167.779C288.759 167.749 289.114 167.819 289.43 167.98C290.393 168.484 291.396 168.905 292.43 169.24C292.755 169.353 293.043 169.552 293.264 169.816C293.484 170.08 293.628 170.4 293.68 170.74L294.68 177C294.756 177.451 294.99 177.861 295.339 178.156C295.689 178.451 296.132 178.612 296.59 178.61H301.15C301.606 178.611 302.048 178.45 302.396 178.155C302.745 177.86 302.976 177.45 303.05 177L304.1 170.74C304.152 170.4 304.296 170.08 304.516 169.816C304.737 169.552 305.025 169.353 305.35 169.24C306.383 168.903 307.386 168.482 308.35 167.98C308.666 167.819 309.021 167.749 309.374 167.779C309.728 167.809 310.066 167.938 310.35 168.15L315.54 171.85C315.911 172.115 316.364 172.24 316.819 172.201C317.273 172.163 317.699 171.964 318.02 171.64L321.24 168.42C321.565 168.097 321.764 167.67 321.802 167.214C321.841 166.757 321.716 166.302 321.45 165.93L317.66 160.62C317.46 160.346 317.337 160.024 317.303 159.686C317.27 159.348 317.327 159.008 317.47 158.7C317.911 157.785 318.285 156.839 318.59 155.87C318.69 155.552 318.874 155.266 319.122 155.043C319.37 154.82 319.673 154.667 320 154.6L326.51 153.51C326.96 153.436 327.37 153.205 327.665 152.856C327.96 152.508 328.121 152.066 328.12 151.61V147.05C328.126 146.588 327.966 146.138 327.668 145.784C327.371 145.43 326.956 145.194 326.5 145.12ZM298.82 161.99C295.457 161.99 292.232 160.654 289.854 158.276C287.476 155.898 286.14 152.673 286.14 149.31C286.136 147.642 286.461 145.99 287.097 144.448C287.732 142.906 288.665 141.505 289.843 140.324C291.021 139.144 292.42 138.207 293.961 137.568C295.501 136.929 297.152 136.6 298.82 136.6C302.183 136.6 305.408 137.936 307.786 140.314C310.164 142.692 311.5 145.917 311.5 149.28C311.504 150.948 311.179 152.6 310.543 154.142C309.908 155.683 308.975 157.085 307.797 158.266C306.619 159.446 305.22 160.383 303.679 161.022C302.139 161.661 300.488 161.99 298.82 161.99Z" fill="#F2385F"/>
<path d="M225.737 104.024C247.957 95.9279 259.407 71.352 251.31 49.1322C243.214 26.9124 218.638 15.4629 196.419 23.559C174.199 31.6552 162.749 56.2311 170.845 78.4509C178.941 100.671 203.517 112.12 225.737 104.024Z" fill="#2A2D43"/>
<path d="M211.07 98.18C230.069 98.18 245.47 82.7786 245.47 63.78C245.47 44.7814 230.069 29.38 211.07 29.38C192.071 29.38 176.67 44.7814 176.67 63.78C176.67 82.7786 192.071 98.18 211.07 98.18Z" fill="#E7E1E2"/>
<path d="M209.77 70.88C209.443 70.8489 209.124 70.7573 208.83 70.61C208.387 70.3887 208.02 70.0402 207.776 69.6091C207.532 69.178 207.422 68.6839 207.46 68.19L209.22 44.95C209.258 44.4909 209.476 44.0653 209.826 43.7658C210.176 43.4662 210.63 43.3168 211.09 43.35C211.317 43.3677 211.537 43.4299 211.74 43.5329C211.942 43.636 212.123 43.7779 212.27 43.9506C212.418 44.1234 212.53 44.3235 212.6 44.5396C212.671 44.7557 212.698 44.9835 212.68 45.21L211.1 66.12L224.44 54.66C224.79 54.3609 225.245 54.213 225.704 54.2486C226.164 54.2842 226.59 54.5005 226.89 54.85C227.038 55.0227 227.15 55.2228 227.221 55.4388C227.291 55.6549 227.318 55.8828 227.301 56.1094C227.283 56.336 227.221 56.5569 227.118 56.7594C227.015 56.962 226.873 57.1423 226.7 57.29L211.58 70.29C211.332 70.5027 211.044 70.6643 210.734 70.7656C210.423 70.8668 210.096 70.9057 209.77 70.88Z" fill="#2A2D43"/>
<path d="M287.78 168.31H127.88V77.54C127.88 76.2475 128.393 75.0077 129.306 74.0928C130.219 73.1779 131.457 72.6626 132.75 72.66H282.9C284.193 72.6626 285.433 73.1776 286.348 74.0922C287.262 75.0068 287.777 76.2465 287.78 77.54V168.31Z" fill="#2A2D43"/>
<path d="M280.72 79.32H134.93C134.472 79.32 134.1 79.6916 134.1 80.15V160.18C134.1 160.638 134.472 161.01 134.93 161.01H280.72C281.178 161.01 281.55 160.638 281.55 160.18V80.15C281.55 79.6916 281.178 79.32 280.72 79.32Z" fill="white"/>
<path d="M127.79 168.31H287.79L314.3 210.43C314.581 210.902 314.732 211.44 314.737 211.989C314.743 212.538 314.603 213.079 314.331 213.556C314.06 214.034 313.667 214.431 313.193 214.707C312.718 214.984 312.179 215.13 311.63 215.13H105.14C104.385 215.13 103.643 214.927 102.994 214.542C102.344 214.156 101.81 213.603 101.449 212.939C101.088 212.276 100.912 211.527 100.94 210.772C100.969 210.018 101.2 209.284 101.61 208.65L127.79 168.31Z" fill="#2A2D43"/>
<path d="M128.07 168.31H287.82L312.5 207.07C312.766 207.518 312.904 208.029 312.902 208.549C312.899 209.07 312.755 209.58 312.485 210.024C312.215 210.469 311.829 210.832 311.368 211.075C310.907 211.317 310.39 211.429 309.87 211.4H106.87C106.151 211.445 105.434 211.289 104.799 210.949C104.164 210.609 103.637 210.099 103.276 209.475C102.915 208.852 102.736 208.14 102.758 207.42C102.78 206.7 103.002 206 103.4 205.4L128.07 168.31Z" fill="#5E627C"/>
<path d="M207.83 77.39C208.653 77.39 209.32 76.7229 209.32 75.9C209.32 75.0771 208.653 74.41 207.83 74.41C207.007 74.41 206.34 75.0771 206.34 75.9C206.34 76.7229 207.007 77.39 207.83 77.39Z" fill="white"/>
<path d="M244.72 208.41H170.93C170.507 208.409 170.089 208.311 169.709 208.123C169.33 207.935 168.999 207.663 168.742 207.326C168.484 206.99 168.308 206.599 168.226 206.183C168.145 205.768 168.16 205.339 168.27 204.93L170.27 197.5C170.435 196.923 170.785 196.415 171.265 196.054C171.745 195.693 172.329 195.499 172.93 195.5H241.29C241.816 195.5 242.331 195.65 242.774 195.934C243.218 196.217 243.57 196.622 243.79 197.1L247.22 204.54C247.406 204.958 247.485 205.416 247.45 205.872C247.415 206.328 247.267 206.768 247.018 207.152C246.77 207.537 246.43 207.853 246.029 208.072C245.627 208.292 245.177 208.408 244.72 208.41Z" fill="#2A2D43"/>
<path d="M141.11 170.05H275.69C276.211 170.049 276.722 170.194 277.166 170.468C277.609 170.741 277.967 171.134 278.2 171.6L286.99 189.95C287.197 190.375 287.293 190.845 287.268 191.317C287.243 191.789 287.098 192.247 286.847 192.648C286.596 193.048 286.246 193.378 285.832 193.606C285.418 193.834 284.953 193.952 284.48 193.95H131.18C130.698 193.949 130.225 193.822 129.806 193.584C129.388 193.345 129.038 193.002 128.791 192.589C128.545 192.175 128.409 191.704 128.399 191.222C128.388 190.741 128.502 190.264 128.73 189.84L138.67 171.5C138.907 171.06 139.26 170.693 139.689 170.437C140.119 170.182 140.61 170.048 141.11 170.05Z" fill="#2A2D43"/>
<path d="M133.5 174.06H282.16" stroke="#5E627C" stroke-miterlimit="10" stroke-linecap="round"/>
<path d="M130.66 180.04H285" stroke="#5E627C" stroke-miterlimit="10" stroke-linecap="round"/>
<path d="M127.82 187.51H286.41" stroke="#5E627C" stroke-miterlimit="10" stroke-linecap="round"/>
<path d="M198.29 170.05V193.96" stroke="#5E627C" stroke-miterlimit="10" stroke-linecap="round"/>
<path d="M212.48 170.05V193.96" stroke="#5E627C" stroke-miterlimit="10" stroke-linecap="round"/>
<path d="M171.33 170.05L165.66 193.96" stroke="#5E627C" stroke-miterlimit="10" stroke-linecap="round"/>
<path d="M185.52 170.05L182.68 193.96" stroke="#5E627C" stroke-miterlimit="10" stroke-linecap="round"/>
<path d="M145.79 170.05L135.86 193.96" stroke="#5E627C" stroke-miterlimit="10" stroke-linecap="round"/>
<path d="M158.56 170.05L151.47 193.96" stroke="#5E627C" stroke-miterlimit="10" stroke-linecap="round"/>
<path d="M240.86 170.05L246.53 193.96" stroke="#5E627C" stroke-miterlimit="10" stroke-linecap="round"/>
<path d="M226.67 170.05L229.51 193.96" stroke="#5E627C" stroke-miterlimit="10" stroke-linecap="round"/>
<path d="M266.4 170.05L276.33 193.96" stroke="#5E627C" stroke-miterlimit="10" stroke-linecap="round"/>
<path d="M253.63 170.05L260.72 193.96" stroke="#5E627C" stroke-miterlimit="10" stroke-linecap="round"/>
<path opacity="0.86" d="M176.36 89.3H147.83C146.742 89.3 145.86 90.182 145.86 91.27V114.93C145.86 116.018 146.742 116.9 147.83 116.9H176.36C177.448 116.9 178.33 116.018 178.33 114.93V91.27C178.33 90.182 177.448 89.3 176.36 89.3Z" fill="#E7E1E2"/>
<path d="M270.27 89.3H201.69C201.348 89.3 201.07 89.5776 201.07 89.92V153.63C201.07 153.972 201.348 154.25 201.69 154.25H270.27C270.612 154.25 270.89 153.972 270.89 153.63V89.92C270.89 89.5776 270.612 89.3 270.27 89.3Z" fill="#E7E1E2"/>
<path d="M271.36 122.24V134.06C271.36 134.676 271.116 135.267 270.681 135.704C270.246 136.141 269.656 136.387 269.04 136.39H230.42C230.114 136.389 229.812 136.448 229.529 136.564C229.246 136.68 228.99 136.85 228.773 137.066C228.557 137.282 228.385 137.538 228.268 137.82C228.15 138.102 228.09 138.405 228.09 138.71V140.6C228.09 141.218 228.335 141.811 228.772 142.248C229.209 142.685 229.802 142.93 230.42 142.93H273.69C274.304 142.925 274.892 142.677 275.325 142.241C275.757 141.804 276 141.215 276 140.6V122.24C275.999 121.665 275.786 121.111 275.402 120.683C275.019 120.256 274.491 119.984 273.92 119.92C273.596 119.889 273.27 119.927 272.962 120.029C272.653 120.132 272.369 120.297 272.129 120.516C271.888 120.734 271.695 121 271.563 121.297C271.43 121.594 271.361 121.915 271.36 122.24Z" fill="#2A2D43"/>
<path d="M221.23 140.03L230.41 130.85C230.484 130.754 230.588 130.684 230.706 130.652C230.823 130.62 230.948 130.627 231.061 130.673C231.174 130.718 231.269 130.799 231.332 130.903C231.395 131.007 231.422 131.129 231.41 131.25V148.9C231.412 149.01 231.381 149.117 231.322 149.21C231.263 149.302 231.179 149.375 231.079 149.42C230.978 149.465 230.867 149.479 230.759 149.461C230.651 149.444 230.551 149.394 230.47 149.32L221.29 140.84C221.23 140.793 221.18 140.734 221.144 140.666C221.109 140.599 221.087 140.524 221.081 140.448C221.076 140.372 221.086 140.295 221.112 140.223C221.137 140.151 221.178 140.086 221.23 140.03Z" fill="#2A2D43"/>
<path d="M196.07 89.3H193.08C193.008 89.3 192.95 89.3582 192.95 89.43V154.12C192.95 154.192 193.008 154.25 193.08 154.25H196.07C196.142 154.25 196.2 154.192 196.2 154.12V89.43C196.2 89.3582 196.142 89.3 196.07 89.3Z" fill="#E7E1E2"/>
<path d="M187.81 123.4H146.12C145.976 123.4 145.86 123.516 145.86 123.66V126.39C145.86 126.534 145.976 126.65 146.12 126.65H187.81C187.954 126.65 188.07 126.534 188.07 126.39V123.66C188.07 123.516 187.954 123.4 187.81 123.4Z" fill="#E7E1E2"/>
<path d="M187.81 131.52H146.12C145.976 131.52 145.86 131.636 145.86 131.78V134.51C145.86 134.654 145.976 134.77 146.12 134.77H187.81C187.954 134.77 188.07 134.654 188.07 134.51V131.78C188.07 131.636 187.954 131.52 187.81 131.52Z" fill="#E7E1E2"/>
<path d="M187.81 139.63H146.12C145.976 139.63 145.86 139.746 145.86 139.89V142.62C145.86 142.764 145.976 142.88 146.12 142.88H187.81C187.954 142.88 188.07 142.764 188.07 142.62V139.89C188.07 139.746 187.954 139.63 187.81 139.63Z" fill="#E7E1E2"/>
<path d="M143.48 103.83V94.7C143.48 94.4641 143.527 94.2305 143.617 94.0127C143.708 93.7949 143.841 93.5971 144.008 93.4308C144.175 93.2644 144.374 93.1328 144.592 93.0434C144.81 92.954 145.044 92.9087 145.28 92.91H175.1C175.577 92.9074 176.033 92.7169 176.37 92.3799C176.707 92.0429 176.897 91.5866 176.9 91.11V89.69C176.897 89.2134 176.707 88.7571 176.37 88.4201C176.033 88.0831 175.577 87.8926 175.1 87.89H141.68C141.203 87.8926 140.747 88.0831 140.41 88.4201C140.073 88.7571 139.883 89.2134 139.88 89.69V103.83C139.88 104.275 140.044 104.703 140.342 105.034C140.639 105.364 141.048 105.573 141.49 105.62C141.741 105.647 141.995 105.62 142.235 105.542C142.475 105.465 142.696 105.337 142.884 105.168C143.071 105 143.221 104.793 143.324 104.563C143.427 104.332 143.48 104.082 143.48 103.83Z" fill="#F2385F"/>
<path d="M182.19 90.09L175.1 97.18C175.04 97.2427 174.962 97.2856 174.877 97.3033C174.792 97.3209 174.704 97.3124 174.624 97.2788C174.544 97.2453 174.476 97.1883 174.428 97.1153C174.381 97.0423 174.358 96.9568 174.36 96.87V83.24C174.358 83.1544 174.381 83.0701 174.427 82.9978C174.472 82.9255 174.539 82.8685 174.617 82.8341C174.696 82.7997 174.782 82.7895 174.867 82.8048C174.951 82.8202 175.029 82.8603 175.09 82.92L182.18 89.47C182.224 89.5087 182.259 89.556 182.283 89.609C182.308 89.662 182.321 89.7195 182.322 89.7778C182.323 89.8361 182.311 89.894 182.289 89.9478C182.266 90.0015 182.232 90.05 182.19 90.09Z" fill="#F2385F"/>
<path opacity="0.74" d="M370.76 94.17H262.46C260.98 94.17 259.78 95.3699 259.78 96.85V125.59C259.78 127.07 260.98 128.27 262.46 128.27H370.76C372.24 128.27 373.44 127.07 373.44 125.59V96.85C373.44 95.3699 372.24 94.17 370.76 94.17Z" fill="#2A2D43"/>
<path d="M365.89 89.3H257.59C256.11 89.3 254.91 90.4999 254.91 91.98V120.72C254.91 122.2 256.11 123.4 257.59 123.4H365.89C367.37 123.4 368.57 122.2 368.57 120.72V91.98C368.57 90.4999 367.37 89.3 365.89 89.3Z" fill="#F2385F"/>
<path d="M359.88 100.67H292.83C292.515 100.67 292.26 100.925 292.26 101.24V103.35C292.26 103.665 292.515 103.92 292.83 103.92H359.88C360.195 103.92 360.45 103.665 360.45 103.35V101.24C360.45 100.925 360.195 100.67 359.88 100.67Z" fill="white"/>
<path d="M359.88 110.41H292.83C292.515 110.41 292.26 110.665 292.26 110.98V113.09C292.26 113.405 292.515 113.66 292.83 113.66H359.88C360.195 113.66 360.45 113.405 360.45 113.09V110.98C360.45 110.665 360.195 110.41 359.88 110.41Z" fill="white"/>
<path d="M274.4 115.28C279.779 115.28 284.14 110.919 284.14 105.54C284.14 100.161 279.779 95.8 274.4 95.8C269.021 95.8 264.66 100.161 264.66 105.54C264.66 110.919 269.021 115.28 274.4 115.28Z" fill="white"/>
<path d="M147.2 110.41H102.79C101.586 110.41 100.61 111.386 100.61 112.59V155.32C100.61 156.524 101.586 157.5 102.79 157.5H147.2C148.404 157.5 149.38 156.524 149.38 155.32V112.59C149.38 111.386 148.404 110.41 147.2 110.41Z" fill="#F2385F"/>
<path opacity="0.74" d="M147.2 110.41H102.79C101.586 110.41 100.61 111.386 100.61 112.59V155.32C100.61 156.524 101.586 157.5 102.79 157.5H147.2C148.404 157.5 149.38 156.524 149.38 155.32V112.59C149.38 111.386 148.404 110.41 147.2 110.41Z" fill="#2A2D43"/>
<path opacity="0.74" d="M150.45 113.66H106.04C104.836 113.66 103.86 114.636 103.86 115.84V158.57C103.86 159.774 104.836 160.75 106.04 160.75H150.45C151.654 160.75 152.63 159.774 152.63 158.57V115.84C152.63 114.636 151.654 113.66 150.45 113.66Z" fill="#2A2D43"/>
<path d="M119.23 116.9H106.34C105.865 116.9 105.48 117.285 105.48 117.76V130.15C105.48 130.625 105.865 131.01 106.34 131.01H119.23C119.705 131.01 120.09 130.625 120.09 130.15V117.76C120.09 117.285 119.705 116.9 119.23 116.9Z" fill="white"/>
<path d="M123.8 121.77H144.91" stroke="white" stroke-miterlimit="10" stroke-linecap="round"/>
<path d="M123.8 127.46H144.91" stroke="white" stroke-miterlimit="10" stroke-linecap="round"/>
<path d="M145.03 137.2H106.64C106.48 137.2 106.35 137.33 106.35 137.49V149.9C106.35 150.06 106.48 150.19 106.64 150.19H145.03C145.19 150.19 145.32 150.06 145.32 149.9V137.49C145.32 137.33 145.19 137.2 145.03 137.2Z" stroke="white" stroke-width="0.75" stroke-miterlimit="10" stroke-linecap="round"/>
</g>
<defs>
<clipPath id="clip0_1_543">
<rect width="408.33" height="228.93" fill="white"/>
</clipPath>
</defs>
</svg>
