<svg width="24" height="24" viewBox="0 0 24 24" fill="none" xmlns="http://www.w3.org/2000/svg">
<path fill-rule="evenodd" clip-rule="evenodd" d="M7.33333 2.66667C6.97971 2.66667 6.64057 2.80715 6.39052 3.0572C6.14048 3.30724 6 3.64638 6 4.00001V20C6 20.3536 6.14048 20.6928 6.39052 20.9428C6.64057 21.1929 6.97971 21.3333 7.33333 21.3333H16.6667C17.0203 21.3333 17.3594 21.1929 17.6095 20.9428C17.8595 20.6928 18 20.3536 18 20V4.00001C18 3.64638 17.8595 3.30724 17.6095 3.0572C17.3594 2.80715 17.0203 2.66667 16.6667 2.66667H7.33333ZM16.6667 4.00001H7.33333V10H16.6667V4.00001ZM10.182 12.424C10.182 12.7134 10.0671 12.9909 9.86245 13.1955C9.65785 13.4001 9.38035 13.515 9.091 13.515C8.80165 13.515 8.52415 13.4001 8.31955 13.1955C8.11494 12.9909 8 12.7134 8 12.424C8 12.1347 8.11494 11.8572 8.31955 11.6526C8.52415 11.4479 8.80165 11.333 9.091 11.333C9.38035 11.333 9.65785 11.4479 9.86245 11.6526C10.0671 11.8572 10.182 12.1347 10.182 12.424ZM12 13.5153C12.2894 13.5153 12.5669 13.4004 12.7715 13.1958C12.9761 12.9912 13.091 12.7137 13.091 12.4243C13.091 12.135 12.9761 11.8575 12.7715 11.6529C12.5669 11.4483 12.2894 11.3333 12 11.3333C11.7106 11.3333 11.4331 11.4483 11.2285 11.6529C11.0239 11.8575 10.909 12.135 10.909 12.4243C10.909 12.7137 11.0239 12.9912 11.2285 13.1958C11.4331 13.4004 11.7106 13.5153 12 13.5153ZM16 12.424C16 12.7134 15.8851 12.9909 15.6805 13.1955C15.4759 13.4001 15.1984 13.515 14.909 13.515C14.6196 13.515 14.3421 13.4001 14.1375 13.1955C13.9329 12.9909 13.818 12.7134 13.818 12.424C13.818 12.1347 13.9329 11.8572 14.1375 11.6526C14.3421 11.4479 14.6196 11.333 14.909 11.333C15.1984 11.333 15.4759 11.4479 15.6805 11.6526C15.8851 11.8572 16 12.1347 16 12.424ZM9.09067 16.424C9.23389 16.424 9.37572 16.3958 9.50805 16.341C9.64037 16.2862 9.76061 16.2058 9.86189 16.1046C9.96316 16.0033 10.0435 15.883 10.0983 15.7507C10.1531 15.6184 10.1813 15.4766 10.1813 15.3333C10.1813 15.1901 10.1531 15.0483 10.0983 14.916C10.0435 14.7836 9.96316 14.6634 9.86189 14.5621C9.76061 14.4608 9.64037 14.3805 9.50805 14.3257C9.37572 14.2709 9.23389 14.2427 9.09067 14.2427C8.8014 14.2427 8.52399 14.3576 8.31945 14.5621C8.11491 14.7667 8 15.0441 8 15.3333C8 15.6226 8.11491 15.9 8.31945 16.1046C8.52399 16.3091 8.8014 16.424 9.09067 16.424ZM13.0907 15.3333C13.0907 15.6227 12.9757 15.9002 12.7711 16.1048C12.5665 16.3094 12.289 16.4243 11.9997 16.4243C11.7103 16.4243 11.4328 16.3094 11.2282 16.1048C11.0236 15.9002 10.9087 15.6227 10.9087 15.3333C10.9087 15.044 11.0236 14.7665 11.2282 14.5619C11.4328 14.3573 11.7103 14.2423 11.9997 14.2423C12.289 14.2423 12.5665 14.3573 12.7711 14.5619C12.9757 14.7665 13.0907 15.044 13.0907 15.3333ZM14.9093 16.424C15.0526 16.424 15.1944 16.3958 15.3267 16.341C15.459 16.2862 15.5793 16.2058 15.6806 16.1046C15.7818 16.0033 15.8622 15.883 15.917 15.7507C15.9718 15.6184 16 15.4766 16 15.3333C16 15.1901 15.9718 15.0483 15.917 14.916C15.8622 14.7836 15.7818 14.6634 15.6806 14.5621C15.5793 14.4608 15.459 14.3805 15.3267 14.3257C15.1944 14.2709 15.0526 14.2427 14.9093 14.2427C14.6201 14.2427 14.3427 14.3576 14.1381 14.5621C13.9336 14.7667 13.8187 15.0441 13.8187 15.3333C13.8187 15.6226 13.9336 15.9 14.1381 16.1046C14.3427 16.3091 14.6201 16.424 14.9093 16.424ZM16 18.2427C16 18.532 15.8851 18.8095 15.6805 19.0141C15.4759 19.2187 15.1984 19.3337 14.909 19.3337C14.6196 19.3337 14.3421 19.2187 14.1375 19.0141C13.9329 18.8095 13.818 18.532 13.818 18.2427C13.818 17.9533 13.9329 17.6758 14.1375 17.4712C14.3421 17.2666 14.6196 17.1517 14.909 17.1517C15.1984 17.1517 15.4759 17.2666 15.6805 17.4712C15.8851 17.6758 16 17.9533 16 18.2427ZM9.09067 17.1513C8.80132 17.1513 8.52381 17.2663 8.31921 17.4709C8.11461 17.6755 7.99967 17.953 7.99967 18.2423C7.99967 18.5317 8.11461 18.8092 8.31921 19.0138C8.52381 19.2184 8.80132 19.3333 9.09067 19.3333H12C12.2894 19.3333 12.5669 19.2184 12.7715 19.0138C12.9761 18.8092 13.091 18.5317 13.091 18.2423C13.091 17.953 12.9761 17.6755 12.7715 17.4709C12.5669 17.2663 12.2894 17.1513 12 17.1513H9.09067Z" fill="#2A2D43"/>
</svg>
