<svg width="8" height="10" viewBox="0 0 8 10" fill="none" xmlns="http://www.w3.org/2000/svg">
<path d="M0.230402 4.58829C0.159345 4.63416 0.101245 4.69555 0.0611086 4.76715C0.0209718 4.83875 4.76837e-07 4.91843 4.76837e-07 4.99932C4.76837e-07 5.08021 0.0209718 5.15989 0.0611086 5.2315C0.101245 5.3031 0.159345 5.36448 0.230402 5.41035L7.16326 9.91071C7.24322 9.9628 7.33688 9.99335 7.43406 9.99903C7.53124 10.0047 7.62823 9.98532 7.71448 9.94295C7.80073 9.90059 7.87294 9.83686 7.92328 9.75871C7.97362 9.68056 8.00015 9.59097 8 9.49967L8 0.49897C7.9996 0.407884 7.97272 0.318625 7.92226 0.24079C7.87181 0.162955 7.79967 0.0994899 7.71362 0.0572196C7.62757 0.0149493 7.53086 -0.00452694 7.43389 0.000885468C7.33692 0.00629787 7.24335 0.0363941 7.16326 0.0879376L0.230402 4.58829Z" fill="white"/>
</svg>
