<svg width="24" height="24" viewBox="0 0 24 24" fill="none" xmlns="http://www.w3.org/2000/svg">
<path d="M11.2333 14.4H7.43329C6.92938 14.4 6.44611 14.6002 6.08979 14.9565C5.73347 15.3128 5.53329 15.7961 5.53329 16.3V17.5667H6.79996V16.3C6.79996 16.132 6.86669 15.9709 6.98546 15.8522C7.10423 15.7334 7.26532 15.6667 7.43329 15.6667H11.2333C11.4013 15.6667 11.5624 15.7334 11.6811 15.8522C11.7999 15.9709 11.8666 16.132 11.8666 16.3V17.5667H13.1333V16.3C13.1333 15.7961 12.9331 15.3128 12.5768 14.9565C12.2205 14.6002 11.7372 14.4 11.2333 14.4ZM9.33329 13.7667C9.83434 13.7667 10.3241 13.6181 10.7407 13.3397C11.1573 13.0614 11.482 12.6657 11.6738 12.2028C11.8655 11.7399 11.9157 11.2305 11.818 10.7391C11.7202 10.2477 11.4789 9.79629 11.1246 9.44199C10.7703 9.0877 10.3189 8.84642 9.82752 8.74868C9.3361 8.65093 8.82674 8.70109 8.36383 8.89284C7.90092 9.08458 7.50527 9.40928 7.22691 9.82589C6.94854 10.2425 6.79996 10.7323 6.79996 11.2333C6.79996 11.9052 7.06687 12.5496 7.54196 13.0247C8.01705 13.4998 8.66141 13.7667 9.33329 13.7667ZM9.33329 9.96666C9.58382 9.96666 9.82871 10.041 10.037 10.1801C10.2453 10.3193 10.4077 10.5171 10.5035 10.7486C10.5994 10.9801 10.6245 11.2347 10.5756 11.4804C10.5267 11.7262 10.4061 11.9519 10.229 12.129C10.0518 12.3061 9.82612 12.4268 9.58041 12.4757C9.3347 12.5245 9.08002 12.4994 8.84856 12.4036C8.61711 12.3077 8.41928 12.1454 8.2801 11.9371C8.14092 11.7288 8.06663 11.4839 8.06663 11.2333C8.06663 10.8974 8.20008 10.5752 8.43763 10.3377C8.67517 10.1001 8.99735 9.96666 9.33329 9.96666Z" fill="#2A2D43"/>
<path d="M9.33329 9.96666C9.58382 9.96666 9.82871 10.041 10.037 10.1801C10.2453 10.3193 10.4077 10.5171 10.5035 10.7486C10.5994 10.9801 10.6245 11.2347 10.5756 11.4804C10.5267 11.7262 10.4061 11.9519 10.229 12.129C10.0518 12.3061 9.82612 12.4268 9.58041 12.4757C9.3347 12.5245 9.08002 12.4994 8.84856 12.4036C8.61711 12.3077 8.41928 12.1454 8.2801 11.9371C8.14092 11.7288 8.06663 11.4839 8.06663 11.2333C8.06663 10.8974 8.20008 10.5752 8.43763 10.3377C8.67517 10.1001 8.99735 9.96666 9.33329 9.96666Z" fill="#2A2D43"/>
<path d="M6.79996 16.3V17.5667H11.8666V16.3C11.8666 16.132 11.7999 15.9709 11.6811 15.8522C11.5624 15.7334 11.4013 15.6667 11.2333 15.6667H7.43329C7.26532 15.6667 7.10423 15.7334 6.98546 15.8522C6.86669 15.9709 6.79996 16.132 6.79996 16.3Z" fill="#2A2D43"/>
<path d="M19.4667 13.7667V19.4667H4.26667V6.80001H11.8667V5.53334H4.26667C3.93073 5.53334 3.60854 5.66679 3.371 5.90434C3.13345 6.14188 3 6.46407 3 6.80001V19.4667C3 19.8026 3.13345 20.1248 3.371 20.3623C3.60854 20.5999 3.93073 20.7333 4.26667 20.7333H19.4667C19.8026 20.7333 20.1248 20.5999 20.3623 20.3623C20.5999 20.1248 20.7333 19.8026 20.7333 19.4667V13.7667H19.4667Z" fill="#2A2D43"/>
<path d="M14.4 13.7667H18.2V15.0333H14.4V13.7667ZM15.6667 16.3H18.2V17.5667H15.6667V16.3ZM22 8.06667V6.8H20.6694C20.5877 6.40355 20.4303 6.02658 20.2058 5.68977L21.1495 4.7461L20.2539 3.85057L19.3103 4.79423C18.9735 4.56972 18.5965 4.41231 18.2 4.33063V3H16.9334V4.33063C16.5369 4.41231 16.16 4.56972 15.8231 4.79423L14.8795 3.85057L13.9839 4.7461L14.9276 5.68977C14.7031 6.02658 14.5457 6.40355 14.464 6.8H13.1334V8.06667H14.464C14.5457 8.46312 14.7031 8.84009 14.9276 9.1769L13.9839 10.1206L14.8795 11.0161L15.8231 10.0724C16.16 10.2969 16.5369 10.4544 16.9334 10.536V11.8667H18.2V10.536C18.5965 10.4544 18.9735 10.2969 19.3103 10.0724L20.2539 11.0161L21.1495 10.1206L20.2058 9.1769C20.4303 8.84009 20.5877 8.46312 20.6694 8.06667H22ZM17.5667 9.33333C17.1909 9.33333 16.8236 9.2219 16.5111 9.01313C16.1987 8.80435 15.9551 8.50761 15.8113 8.16043C15.6675 7.81325 15.6299 7.43123 15.7032 7.06266C15.7765 6.6941 15.9575 6.35555 16.2232 6.08983C16.4889 5.82411 16.8275 5.64315 17.196 5.56984C17.5646 5.49653 17.9466 5.53416 18.2938 5.67796C18.641 5.82177 18.9377 6.0653 19.1465 6.37775C19.3553 6.6902 19.4667 7.05755 19.4667 7.43333C19.4662 7.93709 19.2659 8.42007 18.9097 8.77628C18.5534 9.13249 18.0705 9.33283 17.5667 9.33333Z" fill="#2A2D43"/>
</svg>
