<svg width="24" height="24" viewBox="0 0 24 24" fill="none" xmlns="http://www.w3.org/2000/svg">
<path d="M18.3 4.8H17.4V3.9C17.4 3.36 17.04 3 16.5 3C15.96 3 15.6 3.36 15.6 3.9V4.8H8.4V3.9C8.4 3.36 8.04 3 7.5 3C6.96 3 6.6 3.36 6.6 3.9V4.8H5.7C4.17 4.8 3 5.97 3 7.5V8.4H21V7.5C21 5.97 19.83 4.8 18.3 4.8ZM3 18.3C3 19.83 4.17 21 5.7 21H18.3C19.83 21 21 19.83 21 18.3V10.2H3V18.3ZM16.5 12C17.04 12 17.4 12.36 17.4 12.9C17.4 13.44 17.04 13.8 16.5 13.8C15.96 13.8 15.6 13.44 15.6 12.9C15.6 12.36 15.96 12 16.5 12ZM16.5 15.6C17.04 15.6 17.4 15.96 17.4 16.5C17.4 17.04 17.04 17.4 16.5 17.4C15.96 17.4 15.6 17.04 15.6 16.5C15.6 15.96 15.96 15.6 16.5 15.6ZM12 12C12.54 12 12.9 12.36 12.9 12.9C12.9 13.44 12.54 13.8 12 13.8C11.46 13.8 11.1 13.44 11.1 12.9C11.1 12.36 11.46 12 12 12ZM12 15.6C12.54 15.6 12.9 15.96 12.9 16.5C12.9 17.04 12.54 17.4 12 17.4C11.46 17.4 11.1 17.04 11.1 16.5C11.1 15.96 11.46 15.6 12 15.6ZM7.5 12C8.04 12 8.4 12.36 8.4 12.9C8.4 13.44 8.04 13.8 7.5 13.8C6.96 13.8 6.6 13.44 6.6 12.9C6.6 12.36 6.96 12 7.5 12ZM7.5 15.6C8.04 15.6 8.4 15.96 8.4 16.5C8.4 17.04 8.04 17.4 7.5 17.4C6.96 17.4 6.6 17.04 6.6 16.5C6.6 15.96 6.96 15.6 7.5 15.6Z" fill="#2A2D43"/>
</svg>
