<svg width="24" height="24" viewBox="0 0 24 24" fill="none" xmlns="http://www.w3.org/2000/svg">
<path d="M19.25 6.75H14.5V2L19.25 6.75ZM14.5 7.9375H19.25V19.2188C19.25 20.2025 18.4525 21 17.4688 21H6.78125C5.79748 21 5 20.2021 5 19.2188V3.78125C5 2.79748 5.79748 2 6.78125 2H13.3125L13.3126 6.75C13.3125 7.40684 13.8432 7.9375 14.5 7.9375ZM7.375 5.26562C7.375 5.42816 7.50971 5.5625 7.67188 5.5625H10.6406C10.8039 5.5625 10.9375 5.42816 10.9375 5.26562V4.67188C10.9375 4.50971 10.8039 4.375 10.6406 4.375H7.67188C7.50971 4.375 7.375 4.50971 7.375 4.67188V5.26562ZM7.67188 7.9375H10.6406C10.8039 7.9375 10.9375 7.80391 10.9375 7.64062V7.04688C10.9375 6.88359 10.8039 6.75 10.6406 6.75H7.67188C7.50971 6.75 7.375 6.88359 7.375 7.04688V7.64062C7.375 7.80391 7.50971 7.9375 7.67188 7.9375ZM12.3291 13.7562L12.0916 13.6969C11.2455 13.4371 11.2641 13.285 11.2938 13.1514C11.3448 12.8615 11.9094 12.7907 12.4171 12.8684C12.6246 12.8997 12.8523 12.9728 13.0698 13.0482C13.4554 13.1815 13.8799 12.9762 14.0142 12.5902C14.1488 12.2028 13.9441 11.7798 13.5567 11.6451C13.2888 11.5529 13.0702 11.4937 12.8679 11.4494V11.2031C12.8679 10.7938 12.5357 10.4609 12.1257 10.4609C11.7158 10.4609 11.3836 10.7938 11.3836 11.2031V11.4255C10.5516 11.6039 9.96523 12.1234 9.83164 12.899C9.55681 14.4888 11.0633 14.9308 11.7064 15.1196L11.9221 15.1823C13.0086 15.4931 12.9908 15.5975 12.9582 15.7864C12.9072 16.0763 12.3425 16.1482 11.8334 16.0694C11.5759 16.0311 11.2467 15.9128 10.9554 15.8085L10.7895 15.7482C10.4032 15.6148 9.97945 15.8154 9.84251 16.2016C9.70625 16.588 9.90861 17.0121 10.2952 17.149L10.4536 17.2047C10.7415 17.3082 11.0614 17.4122 11.3835 17.4835V17.7344C11.3835 18.1437 11.7158 18.4766 12.1257 18.4766C12.5357 18.4766 12.8679 18.1437 12.8679 17.7344V17.5023C13.6977 17.3244 14.2858 16.8147 14.4202 16.0391C14.6967 14.4316 13.1566 13.99 12.3291 13.7562Z" fill="#2A2D43"/>
</svg>
