<svg width="24" height="24" viewBox="0 0 24 24" fill="none" xmlns="http://www.w3.org/2000/svg">
<path d="M11.9972 13.75C13.6118 13.75 14.8969 12.4769 14.8969 10.9062C14.8969 9.33563 13.5879 8.0625 11.9972 8.0625C10.3825 8.0625 9.0975 9.33563 9.0975 10.9062C9.07219 12.4758 10.3828 13.75 11.9972 13.75ZM13.4034 14.625H10.5966C8.38875 14.625 6.6 16.2574 6.6 18.2699C6.6 18.6746 6.95719 19 7.39875 19H16.6012C17.0428 19 17.4 18.6746 17.4 18.2699C17.4 16.2574 15.6112 14.625 13.4034 14.625ZM17.4 9.375C18.6426 9.375 19.65 8.39555 19.65 7.1875C19.65 5.97945 18.6431 5 17.4 5C16.1574 5 15.15 5.97945 15.15 7.1875C15.15 8.39555 16.1569 9.375 17.4 9.375ZM8.17219 10.9062C8.17219 10.7573 8.19981 10.6156 8.21744 10.4712C7.91062 10.3074 7.57312 10.25 7.21594 10.25H5.47725C4.10925 10.25 3 11.393 3 12.8012C3 13.0828 3.22182 13.3125 3.49556 13.3125H9.1065C8.53219 12.6617 8.17219 11.8277 8.17219 10.9062ZM6.6 9.375C7.84256 9.375 8.85 8.39555 8.85 7.1875C8.85 5.97945 7.84312 5 6.6 5C5.35744 5 4.35 5.97945 4.35 7.1875C4.35 8.39555 5.35744 9.375 6.6 9.375ZM18.5222 10.25H16.7829C16.4229 10.25 16.0832 10.333 15.7744 10.4753C15.7913 10.6191 15.8194 10.7586 15.8194 10.9062C15.8194 11.828 15.4599 12.662 14.8868 13.3125H20.5033C20.7778 13.3125 21 13.0828 21 12.8012C21 11.393 19.8919 10.25 18.5222 10.25Z" fill="#2A2D43"/>
</svg>
