<svg width="10" height="10" viewBox="0 0 10 10" fill="none" xmlns="http://www.w3.org/2000/svg">
<path d="M9.86662 4.24003L8.74996 3.9067C8.67275 3.63714 8.56658 3.37673 8.43329 3.13004L8.97995 2.10671C9.00047 2.06808 9.00798 2.02387 9.00137 1.98063C8.99477 1.9374 8.9744 1.89745 8.94329 1.86671L8.14663 1.06671C8.11588 1.0356 8.07593 1.01523 8.0327 1.00863C7.98947 1.00202 7.94525 1.00953 7.90663 1.03005L6.88997 1.57338C6.64084 1.4336 6.37701 1.32181 6.1033 1.24004L5.76997 0.136717C5.75587 0.096056 5.72923 0.060917 5.69389 0.0363581C5.65855 0.0117992 5.61633 -0.000913076 5.57331 5.1056e-05H4.44664C4.40336 0.00025258 4.36127 0.0142625 4.32649 0.0400419C4.29172 0.0658213 4.26608 0.102025 4.25331 0.143384L3.91998 1.24338C3.64399 1.3247 3.3779 1.4365 3.12665 1.57671L2.12666 1.03671C2.08803 1.0162 2.04382 1.00869 2.00058 1.01529C1.95735 1.0219 1.9174 1.04227 1.88666 1.07338L1.07666 1.86337C1.04555 1.89412 1.02518 1.93407 1.01858 1.9773C1.01197 2.02054 1.01948 2.06475 1.03999 2.10337L1.57999 3.10337C1.44001 3.35357 1.32822 3.61852 1.24666 3.89336L0.143333 4.2267C0.101974 4.23947 0.0657703 4.26511 0.0399909 4.29988C0.0142114 4.33465 0.000201524 4.37674 0 4.42003V5.54669C0.000201524 5.58997 0.0142114 5.63207 0.0399909 5.66684C0.0657703 5.70161 0.101974 5.72725 0.143333 5.74002L1.25333 6.07335C1.33578 6.34362 1.44755 6.60406 1.58666 6.85002L1.03999 7.89668C1.01948 7.9353 1.01197 7.97952 1.01858 8.02275C1.02518 8.06598 1.04555 8.10594 1.07666 8.13668L1.87332 8.93334C1.90406 8.96445 1.94402 8.98482 1.98725 8.99142C2.03048 8.99803 2.0747 8.99052 2.11332 8.97001L3.14332 8.42001C3.38697 8.55148 3.64399 8.65652 3.90998 8.73334L4.24331 9.85667C4.25608 9.89803 4.28172 9.93423 4.31649 9.96001C4.35127 9.98579 4.39336 9.9998 4.43664 10H5.56331C5.60659 9.9998 5.64868 9.98579 5.68345 9.96001C5.71823 9.93423 5.74387 9.89803 5.75664 9.85667L6.08997 8.73001C6.35369 8.65279 6.60845 8.54776 6.84997 8.41667L7.88663 8.97001C7.92525 8.99052 7.96947 8.99803 8.0127 8.99142C8.05593 8.98482 8.09589 8.96445 8.12663 8.93334L8.92329 8.13668C8.9544 8.10594 8.97477 8.06598 8.98137 8.02275C8.98798 7.97952 8.98047 7.9353 8.95996 7.89668L8.40662 6.86335C8.53908 6.62092 8.64523 6.36502 8.72329 6.10002L9.84662 5.76669C9.88798 5.75392 9.92418 5.72828 9.94996 5.69351C9.97574 5.65873 9.98975 5.61664 9.98995 5.57336V4.4367C9.99192 4.39525 9.98115 4.35419 9.95911 4.31903C9.93706 4.28388 9.90479 4.25631 9.86662 4.24003ZM5.00997 6.83335C4.64738 6.83335 4.29292 6.72583 3.99143 6.52438C3.68995 6.32293 3.45496 6.0366 3.3162 5.70161C3.17744 5.36661 3.14114 4.99799 3.21188 4.64236C3.28262 4.28673 3.45722 3.96006 3.71362 3.70367C3.97001 3.44727 4.29668 3.27267 4.65231 3.20193C5.00794 3.13119 5.37656 3.1675 5.71156 3.30626C6.04655 3.44502 6.33288 3.68 6.53433 3.98149C6.73578 4.28297 6.8433 4.63743 6.8433 5.00003C6.8433 5.48625 6.65015 5.95257 6.30633 6.29638C5.96252 6.6402 5.4962 6.83335 5.00997 6.83335Z" fill="black"/>
</svg>
