<svg width="76" height="80" viewBox="0 0 76 80" fill="none" xmlns="http://www.w3.org/2000/svg">
<path d="M47.2837 27.3682L0 41.5732V73.3888L0.00328123 73.3878C0.00578123 74.0424 0.487031 74.7277 1.40594 75.2581L4.80937 77.2231L8.21281 79.1881C9.72859 80.0633 11.9747 80.2561 13.5061 79.6427L17.2783 78.1311C27.7492 73.9355 36.7798 68.7217 44.0469 62.6763L46.6648 60.4985C47.0814 60.1521 47.2803 59.7419 47.2806 59.3189L47.2836 59.318V27.3682H47.2837Z" fill="url(#paint0_linear_1_49227)"/>
<path d="M30.0054 22.7029L33.7776 21.1913C35.3088 20.5777 37.5549 20.7705 39.0707 21.6457L42.4741 23.6107L45.8776 25.5757C47.3935 26.4508 47.7274 27.7475 46.6647 28.6318L44.0468 30.8096C36.7797 36.8549 27.7491 42.0688 17.2783 46.2644L13.5062 47.776C11.9749 48.3896 9.72882 48.1968 8.21288 47.3214L4.8096 45.3566L1.40617 43.3916C-0.109614 42.5164 -0.443676 41.2196 0.61898 40.3355L3.23695 38.1577C10.504 32.1122 19.5346 26.8985 30.0054 22.7029Z" fill="url(#paint1_linear_1_49227)"/>
<path d="M0.61887 40.3356C-0.443942 41.2197 -0.109879 42.5164 1.40606 43.3917L2.99746 44.3105H10.5701V39.5586H1.55293L0.61887 40.3356Z" fill="url(#paint2_linear_1_49227)"/>
<path d="M17.051 28.8154H37.2327V24.0635H26.7513C23.3498 25.5385 20.1104 27.1235 17.051 28.8154Z" fill="url(#paint3_linear_1_49227)"/>
<path d="M40.6719 12.5913C40.6719 8.0466 38.3222 3.9766 34.3861 1.70426C30.4503 -0.568086 25.751 -0.568086 21.8152 1.70426C12.4372 7.11847 6.6116 17.2088 6.6116 28.0374V41.9433L6.61848 41.9438C6.6227 42.5181 7.04098 43.1225 7.85988 43.5953C9.36473 44.4642 11.6411 44.5586 12.9444 43.8061C13.5411 43.4616 13.8268 42.9991 13.8205 42.5158L13.8275 42.5163V28.0374C13.8275 19.7785 18.2707 12.0828 25.423 7.95332C27.1 6.98535 29.1014 6.98519 30.7785 7.95332C32.4549 8.92129 33.456 10.6552 33.456 12.5913V26.4702L33.4639 26.4708C33.4803 27.0374 33.8975 27.631 34.7042 28.0966C36.2091 28.9655 38.4857 29.0597 39.7889 28.3074C40.3539 27.9811 40.6424 27.5492 40.6661 27.0939L40.6721 27.0944V12.5913H40.6719Z" fill="url(#paint4_linear_1_49227)"/>
<path d="M36.321 26.4877V13.868C36.321 8.45007 30.4558 5.06382 25.7638 7.77272V7.77288C27.3212 7.01257 29.1093 7.04725 30.6451 7.87866C32.4101 8.83413 33.456 10.7349 33.456 12.7419V26.4702L33.464 26.4708C33.4804 27.0374 33.8976 27.631 34.7043 28.0966C36.2091 28.9655 38.4857 29.0597 39.789 28.3074C40.1604 28.0929 40.4099 27.8324 40.5457 27.5501C37.7562 27.9113 36.321 26.4877 36.321 26.4877Z" fill="url(#paint5_linear_1_49227)"/>
<path d="M47.2837 32.0718L30.9601 41.4963C27.309 43.6043 24.349 49.2596 24.349 54.128C24.349 58.9963 27.3088 61.234 30.9601 59.1258L47.2837 49.7013V32.0718Z" fill="url(#paint6_linear_1_49227)"/>
<path d="M73.593 27.3719L69.3629 24.933C68.2074 24.2818 66.708 24.3493 65.0679 25.2963L33.9318 43.2727C30.2805 45.3807 27.3207 51.0362 27.3207 55.9044C27.3207 58.5376 28.1877 60.399 29.5605 61.2215L33.9048 63.7302L73.593 27.3719Z" fill="url(#paint7_linear_1_49227)"/>
<path d="M69.2611 27.7172L38.1251 45.6936C34.4738 47.8016 31.514 53.4571 31.514 58.3253C31.514 63.1936 34.4738 65.4313 38.1251 63.3232L69.2611 45.3468C72.9124 43.2388 75.8722 37.5833 75.8722 32.715C75.8722 27.8468 72.9124 25.6091 69.2611 27.7172Z" fill="url(#paint8_linear_1_49227)"/>
<path d="M41.8272 53.1195C42.273 52.4512 42.4527 51.5948 42.2742 51.029C42.3834 50.5453 42.365 50.0789 42.185 49.7672C41.8556 49.1967 41.1263 49.3572 40.5558 50.1258L39.9675 50.9183V50.0125C39.9675 49.1342 39.4336 48.7306 38.7748 49.1109C38.1161 49.4912 37.5822 50.5115 37.5822 51.3898V52.2954L36.9939 52.1823C36.4234 52.0725 35.6941 52.7542 35.3647 53.705C35.2552 54.0212 35.2048 54.3264 35.2059 54.5981L35.2048 54.5972V55.7137L35.207 55.7117C35.2238 56.1864 35.4058 56.5451 35.7225 56.652C35.3819 57.1626 35.1991 57.78 35.2109 58.2979L35.2053 58.2928V59.3451L35.2108 59.3383C35.2155 59.5929 35.2616 59.8256 35.3648 60.0047C35.6942 60.5751 36.4236 60.4145 36.9941 59.6461L37.5823 58.8536V59.7592C37.5823 60.6375 38.1164 61.0411 38.775 60.6608C39.4338 60.2804 39.9677 59.2603 39.9677 58.382V57.4762L40.5559 57.5895C41.1264 57.6994 41.8558 57.0176 42.1852 56.0669C42.3658 55.5456 42.3877 55.0525 42.2773 54.6945C42.4534 53.9233 42.2742 53.2704 41.8272 53.1195Z" fill="url(#paint9_linear_1_49227)"/>
<path d="M43.128 53.5968L42.4889 53.2305L43.086 49.9154L41.9935 49.2871V49.2876C41.6929 49.0821 41.2619 49.1852 40.8613 49.5621C40.7644 49.6532 40.6985 49.453 40.6985 49.453L39.5622 48.7971L39.5624 48.7976C39.3552 48.6859 39.0886 48.7002 38.7972 48.8684C38.1385 49.2487 37.6046 50.269 37.6046 51.1471V52.0529L37.0163 51.9396C36.4458 51.8298 35.7165 52.5116 35.3871 53.4623C35.0963 54.3018 35.2152 55.0694 35.6396 55.3134L35.6388 55.3135L36.2757 55.6794L35.8238 56.2882C35.2533 57.0566 35.0579 58.1421 35.3872 58.7126C35.4635 58.8448 35.5619 58.936 35.6743 58.9912L36.8175 59.6512C36.8175 59.6512 37.7649 59.284 38.0171 59.4299L38.0155 59.4309L39.1813 60.1009L43.128 53.5968Z" fill="url(#paint10_linear_1_49227)"/>
<path d="M41.9934 49.2875C41.6927 49.0821 41.2618 49.1852 40.8612 49.5621C40.7643 49.6531 41.1601 51.3481 41.1601 51.3481L43.0859 49.9153L41.9934 49.2871V49.2875Z" fill="url(#paint11_linear_1_49227)"/>
<path d="M36.2756 55.6792L35.8237 56.2879C35.2533 57.0564 35.0578 58.1419 35.3872 58.7123C35.4634 58.8445 35.5619 58.9358 35.6742 58.9909L36.8175 59.6509L37.5822 56.1681L36.2756 55.6792Z" fill="url(#paint12_linear_1_49227)"/>
<path d="M35.3872 53.4621C35.0964 54.3017 35.2153 55.0693 35.6397 55.3132L35.6389 55.3134L36.2758 55.6793L36.7951 55.9792L38.775 52.7253L37.6048 52.0526L37.0166 51.9393C36.4459 51.8296 35.7164 52.5113 35.3872 53.4621Z" fill="url(#paint13_linear_1_49227)"/>
<path d="M40.6984 49.453L39.5621 48.7971L39.5623 48.7976C39.3551 48.6859 39.0885 48.7002 38.7971 48.8684C38.1384 49.2487 37.6045 50.269 37.6045 51.1471V52.0529L38.7746 52.7255L40.861 49.5624C40.7643 49.6532 40.6984 49.453 40.6984 49.453Z" fill="url(#paint14_linear_1_49227)"/>
<path d="M42.9411 53.5273L42.3528 53.4142L42.9411 52.6217C43.5115 51.8533 43.707 50.7678 43.3776 50.1973C43.0483 49.6269 42.3189 49.7873 41.7484 50.5559L41.1601 51.3484V50.4427C41.1601 49.5644 40.6262 49.1608 39.9675 49.5411C39.3087 49.9214 38.7748 50.9417 38.7748 51.8198V52.7255L38.1865 52.6123C37.6161 52.5025 36.8867 53.1842 36.5573 54.135C36.2279 55.0858 36.4234 55.9455 36.9939 56.0552L37.5822 56.1684L36.9939 56.9609C36.4234 57.7294 36.2279 58.8148 36.5573 59.3853C36.8867 59.9558 37.6161 59.7952 38.1865 59.0267L38.7748 58.2342V59.1398C38.7748 60.0181 39.3087 60.4217 39.9675 60.0414C40.6262 59.6611 41.1601 58.6408 41.1601 57.7627V56.8569L41.7484 56.9702C42.3189 57.08 43.0483 56.3983 43.3776 55.4475C43.707 54.4969 43.5115 53.6372 42.9411 53.5273Z" fill="url(#paint15_linear_1_49227)"/>
<path d="M53.0285 46.4252C53.4743 45.7569 53.654 44.9005 53.4755 44.3347C53.5847 43.851 53.5663 43.3845 53.3863 43.0728C53.0569 42.5024 52.3276 42.6628 51.7571 43.4314L51.1688 44.2239V43.3181C51.1688 42.4399 50.6349 42.0363 49.9762 42.4166C49.3174 42.7969 48.7835 43.8172 48.7835 44.6955V45.6011L48.1952 45.488C47.6247 45.3781 46.8954 46.0599 46.566 47.0106C46.4565 47.3269 46.4061 47.632 46.4072 47.9038L46.4062 47.9028V49.0194L46.4083 49.0174C46.4251 49.492 46.6071 49.8508 46.9238 49.9577C46.5832 50.4683 46.4004 51.0856 46.4122 51.6036L46.4066 51.5985V52.6508L46.4121 52.6439C46.4168 52.8986 46.4629 53.1313 46.5662 53.3103C46.8955 53.8808 47.6249 53.7202 48.1954 52.9517L48.7836 52.1592V53.0649C48.7836 53.9431 49.3177 54.3467 49.9763 53.9664C50.6351 53.5861 51.169 52.566 51.169 51.6877V50.7819L51.7572 50.8952C52.3277 51.005 53.0571 50.3233 53.3865 49.3725C53.5671 48.8513 53.589 48.3581 53.4786 48.0002C53.6547 47.2289 53.4755 46.5761 53.0285 46.4252Z" fill="url(#paint16_linear_1_49227)"/>
<path d="M54.3293 46.9025L53.6903 46.5362L54.2873 43.2211L53.1948 42.5928V42.5932C52.8942 42.3878 52.4632 42.4909 52.0626 42.8678C51.9657 42.9589 51.8998 42.7587 51.8998 42.7587L50.7635 42.1028L50.7637 42.1032C50.5565 41.9915 50.2899 42.0059 49.9985 42.174C49.3398 42.5543 48.8059 43.5746 48.8059 44.4528V45.3586L48.2176 45.2453C47.6471 45.1354 46.9178 45.8173 46.5884 46.7679C46.2976 47.6075 46.4165 48.3751 46.8409 48.619L46.8401 48.6192L47.477 48.9851L47.0251 49.5939C46.4546 50.3623 46.2592 51.4478 46.5885 52.0182C46.6648 52.1504 46.7632 52.2417 46.8756 52.2968L48.0188 52.9568C48.0188 52.9568 48.9662 52.5896 49.2184 52.7356L49.2168 52.7365L50.3826 53.4065L54.3293 46.9025Z" fill="url(#paint17_linear_1_49227)"/>
<path d="M53.1949 42.5932C52.8942 42.3877 52.4633 42.4908 52.0627 42.8677C51.9658 42.9588 52.3616 44.6538 52.3616 44.6538L54.2874 43.221L53.1949 42.5927V42.5932Z" fill="url(#paint18_linear_1_49227)"/>
<path d="M47.4771 48.9849L47.0252 49.5936C46.4547 50.362 46.2593 51.4475 46.5887 52.018C46.6649 52.1502 46.7633 52.2414 46.8757 52.2966L48.019 52.9566L48.7837 49.4738L47.4771 48.9849Z" fill="url(#paint19_linear_1_49227)"/>
<path d="M46.5887 46.7678C46.2979 47.6073 46.4168 48.375 46.8412 48.6189L46.8404 48.619L47.4773 48.985L47.9966 49.2848L49.9765 46.0309L48.8063 45.3583L48.218 45.245C47.6474 45.1353 46.9179 45.817 46.5887 46.7678Z" fill="url(#paint20_linear_1_49227)"/>
<path d="M51.8999 42.7587L50.7636 42.1028L50.7638 42.1032C50.5566 41.9915 50.29 42.0059 49.9986 42.174C49.3399 42.5543 48.806 43.5746 48.806 44.4528V45.3586L49.9761 46.0312L52.0625 42.8681C51.9658 42.9589 51.8999 42.7587 51.8999 42.7587Z" fill="url(#paint21_linear_1_49227)"/>
<path d="M54.1426 46.8325L53.5543 46.7194L54.1426 45.9269C54.713 45.1585 54.9085 44.073 54.5791 43.5025C54.2497 42.9321 53.5204 43.0925 52.9499 43.8611L52.3616 44.6536V43.7478C52.3616 42.8696 51.8277 42.466 51.169 42.8463C50.5102 43.2266 49.9763 44.2469 49.9763 45.125V46.0306L49.388 45.9175C48.8176 45.8077 48.0882 46.4894 47.7588 47.4402C47.4294 48.391 47.6249 49.2506 48.1954 49.3603L48.7837 49.4736L48.1954 50.2661C47.6249 51.0345 47.4294 52.12 47.7588 52.6905C48.0882 53.261 48.8176 53.1003 49.388 52.3319L49.9763 51.5394V52.445C49.9763 53.3233 50.5102 53.7269 51.169 53.3466C51.8277 52.9663 52.3616 51.946 52.3616 51.0678V50.1621L52.9499 50.2753C53.5204 50.3852 54.2497 49.7035 54.5791 48.7527C54.9085 47.802 54.713 46.9424 54.1426 46.8325Z" fill="url(#paint22_linear_1_49227)"/>
<path d="M64.7474 40.0189C65.1932 39.3506 65.3729 38.4942 65.1945 37.9285C65.3037 37.4447 65.2852 36.9783 65.1052 36.6666C64.7759 36.0961 64.0465 36.2566 63.476 37.0252L62.8877 37.8177V36.9119C62.8877 36.0336 62.3538 35.63 61.6951 36.0103C61.0363 36.3906 60.5024 37.411 60.5024 38.2892V39.1949L59.9141 39.0817C59.3437 38.9719 58.6143 39.6536 58.2849 40.6044C58.1754 40.9206 58.1251 41.2258 58.1262 41.4975L58.1251 41.4966V42.6131L58.1273 42.6111C58.144 43.0858 58.326 43.4445 58.6427 43.5514C58.3021 44.062 58.1193 44.6794 58.1312 45.1974L58.1256 45.1922V46.2445L58.131 46.2377C58.1357 46.4924 58.1818 46.725 58.2851 46.9041C58.6145 47.4745 59.3438 47.3139 59.9143 46.5455L60.5026 45.753V46.6586C60.5026 47.5369 61.0366 47.9405 61.6952 47.5602C62.354 47.1799 62.8879 46.1597 62.8879 45.2814V44.3756L63.4762 44.4889C64.0466 44.5988 64.776 43.917 65.1054 42.9663C65.286 42.445 65.3079 41.9519 65.1976 41.5939C65.3737 40.8227 65.1945 40.1699 64.7474 40.0189Z" fill="url(#paint23_linear_1_49227)"/>
<path d="M66.0482 40.4962L65.4092 40.13L66.0062 36.8148L64.9137 36.1865V36.187C64.6131 35.9815 64.1822 36.0846 63.7815 36.4615C63.6847 36.5526 63.6187 36.3525 63.6187 36.3525L62.4825 35.6965L62.4826 35.697C62.2754 35.5853 62.0089 35.5996 61.7175 35.7678C61.0587 36.1481 60.5248 37.1684 60.5248 38.0465V38.9523L59.9365 38.839C59.3661 38.7292 58.6367 39.4111 58.3073 40.3617C58.0165 41.2012 58.1354 41.9689 58.5598 42.2128L58.559 42.2129L59.1959 42.5789L58.744 43.1876C58.1736 43.9561 57.9781 45.0415 58.3075 45.612C58.3837 45.7442 58.4822 45.8354 58.5945 45.8906L59.7378 46.5506C59.7378 46.5506 60.6851 46.1834 60.9373 46.3293L60.9357 46.3303L62.1015 47.0003L66.0482 40.4962Z" fill="url(#paint24_linear_1_49227)"/>
<path d="M64.9136 36.1869C64.613 35.9815 64.1821 36.0846 63.7814 36.4615C63.6846 36.5526 64.0804 38.2476 64.0804 38.2476L66.0061 36.8147L64.9136 36.1865V36.1869Z" fill="url(#paint25_linear_1_49227)"/>
<path d="M59.1959 42.5786L58.744 43.1874C58.1735 43.9558 57.9781 45.0413 58.3074 45.6117C58.3837 45.7439 58.4821 45.8352 58.5945 45.8903L59.7377 46.5503L60.5024 43.0675L59.1959 42.5786Z" fill="url(#paint26_linear_1_49227)"/>
<path d="M58.3072 40.3615C58.0164 41.2011 58.1354 41.9687 58.5597 42.2126L58.5589 42.2128L59.1958 42.5787L59.7152 42.8786L61.695 39.6247L60.5249 38.952L59.9366 38.8387C59.366 38.729 58.6364 39.4108 58.3072 40.3615Z" fill="url(#paint27_linear_1_49227)"/>
<path d="M63.6187 36.3525L62.4824 35.6965L62.4826 35.697C62.2754 35.5853 62.0088 35.5996 61.7174 35.7678C61.0587 36.1481 60.5248 37.1684 60.5248 38.0465V38.9523L61.6949 39.625L63.7813 36.4618C63.6846 36.5526 63.6187 36.3525 63.6187 36.3525Z" fill="url(#paint28_linear_1_49227)"/>
<path d="M65.8613 40.4268L65.2731 40.3136L65.8613 39.5211C66.4318 38.7527 66.6273 37.6672 66.2979 37.0968C65.9685 36.5263 65.2391 36.6868 64.6687 37.4554L64.0804 38.2479V37.3421C64.0804 36.4638 63.5465 36.0602 62.8877 36.4405C62.229 36.8208 61.6951 37.8411 61.6951 38.7193V39.6249L61.1068 39.5118C60.5363 39.4019 59.807 40.0836 59.4776 41.0344C59.1482 41.9852 59.3437 42.8449 59.9142 42.9546L60.5024 43.0679L59.9142 43.8603C59.3437 44.6288 59.1482 45.7143 59.4776 46.2847C59.807 46.8552 60.5363 46.6946 61.1068 45.9261L61.6951 45.1336V46.0393C61.6951 46.9175 62.229 47.3211 62.8877 46.9408C63.5465 46.5605 64.0804 45.5402 64.0804 44.6621V43.7563L64.6687 43.8696C65.2391 43.9794 65.9685 43.2977 66.2979 42.3469C66.6273 41.3963 66.4318 40.5366 65.8613 40.4268Z" fill="url(#paint29_linear_1_49227)"/>
<defs>
<linearGradient id="paint0_linear_1_49227" x1="9.14703" y1="53.6841" x2="16.9758" y2="53.6841" gradientUnits="userSpaceOnUse">
<stop stop-color="#FFEB71"/>
<stop offset="1" stop-color="#F0E186"/>
</linearGradient>
<linearGradient id="paint1_linear_1_49227" x1="8.2857" y1="25.6177" x2="36.9965" y2="42.1939" gradientUnits="userSpaceOnUse">
<stop stop-color="#F0E186"/>
<stop offset="1" stop-color="#FFE022"/>
</linearGradient>
<linearGradient id="paint2_linear_1_49227" x1="11.2036" y1="41.9345" x2="-3.098" y2="41.9345" gradientUnits="userSpaceOnUse">
<stop offset="0.0319" stop-color="#8B451C"/>
<stop offset="1" stop-color="#8B451C" stop-opacity="0"/>
</linearGradient>
<linearGradient id="paint3_linear_1_49227" x1="39.7343" y1="26.4394" x2="21.427" y2="26.4394" gradientUnits="userSpaceOnUse">
<stop offset="0.0319" stop-color="#8B451C"/>
<stop offset="1" stop-color="#8B451C" stop-opacity="0"/>
</linearGradient>
<linearGradient id="paint4_linear_1_49227" x1="23.6418" y1="38.5166" x2="23.6418" y2="-1.45855" gradientUnits="userSpaceOnUse">
<stop stop-color="#DFDAEF"/>
<stop offset="1" stop-color="white"/>
</linearGradient>
<linearGradient id="paint5_linear_1_49227" x1="33.1546" y1="-0.864618" x2="33.1546" y2="21.1315" gradientUnits="userSpaceOnUse">
<stop offset="0.0319" stop-color="#7662BD"/>
<stop offset="1" stop-color="#7662BD" stop-opacity="0"/>
</linearGradient>
<linearGradient id="paint6_linear_1_49227" x1="35.8163" y1="69.8263" x2="35.8163" y2="31.0205" gradientUnits="userSpaceOnUse">
<stop offset="0.0319" stop-color="#8B451C"/>
<stop offset="1" stop-color="#8B451C" stop-opacity="0"/>
</linearGradient>
<linearGradient id="paint7_linear_1_49227" x1="38.7132" y1="59.9652" x2="49.2785" y2="41.6655" gradientUnits="userSpaceOnUse">
<stop offset="0.0319" stop-color="#A996EB"/>
<stop offset="0.2213" stop-color="#BFB3EB"/>
<stop offset="0.4108" stop-color="#D1C9EB"/>
<stop offset="0.5321" stop-color="#D7D1EB"/>
<stop offset="1" stop-color="#E9E5F6"/>
</linearGradient>
<linearGradient id="paint8_linear_1_49227" x1="53.6931" y1="56.7276" x2="42.4979" y2="37.3374" gradientUnits="userSpaceOnUse">
<stop stop-color="#DFDAEF"/>
<stop offset="1" stop-color="white"/>
</linearGradient>
<linearGradient id="paint9_linear_1_49227" x1="38.7745" y1="50.8397" x2="38.7745" y2="66.304" gradientUnits="userSpaceOnUse">
<stop offset="0.0319" stop-color="#2A2D43"/>
<stop offset="1" stop-color="#2A2D43" stop-opacity="0"/>
</linearGradient>
<linearGradient id="paint10_linear_1_49227" x1="39.1775" y1="60.8409" x2="39.1775" y2="46.3549" gradientUnits="userSpaceOnUse">
<stop stop-color="#696C85"/>
<stop offset="1" stop-color="#2A2D43"/>
</linearGradient>
<linearGradient id="paint11_linear_1_49227" x1="41.4377" y1="50.666" x2="42.0754" y2="49.5613" gradientUnits="userSpaceOnUse">
<stop stop-color="#696C82"/>
<stop offset="1" stop-color="#2A2D43"/>
</linearGradient>
<linearGradient id="paint12_linear_1_49227" x1="35.9219" y1="58.6411" x2="37.2972" y2="56.2589" gradientUnits="userSpaceOnUse">
<stop stop-color="#2A2D43"/>
<stop offset="0.6541" stop-color="#86889A"/>
<stop offset="0.7307" stop-color="#454650"/>
<stop offset="0.8705" stop-color="#61647B"/>
<stop offset="1" stop-color="#2A2D43"/>
</linearGradient>
<linearGradient id="paint13_linear_1_49227" x1="36.4655" y1="54.1017" x2="37.3134" y2="52.6326" gradientUnits="userSpaceOnUse">
<stop stop-color="#666984"/>
<stop offset="1" stop-color="#2A2D43"/>
</linearGradient>
<linearGradient id="paint14_linear_1_49227" x1="38.7139" y1="50.8904" x2="39.5595" y2="49.4257" gradientUnits="userSpaceOnUse">
<stop stop-color="#717389"/>
<stop offset="1" stop-color="#2A2D43"/>
</linearGradient>
<linearGradient id="paint15_linear_1_49227" x1="39.9675" y1="62.465" x2="34.904" y2="53.695" gradientUnits="userSpaceOnUse">
<stop stop-color="#696D88"/>
<stop offset="1" stop-color="#2A2D43"/>
</linearGradient>
<linearGradient id="paint16_linear_1_49227" x1="49.9758" y1="44.1453" x2="49.9758" y2="59.6097" gradientUnits="userSpaceOnUse">
<stop offset="0.0319" stop-color="#2A2D43"/>
<stop offset="1" stop-color="#2A2D43" stop-opacity="0"/>
</linearGradient>
<linearGradient id="paint17_linear_1_49227" x1="50.3788" y1="54.1465" x2="50.3788" y2="39.6606" gradientUnits="userSpaceOnUse">
<stop stop-color="#696C85"/>
<stop offset="1" stop-color="#2A2D43"/>
</linearGradient>
<linearGradient id="paint18_linear_1_49227" x1="52.6392" y1="43.9716" x2="53.2769" y2="42.8669" gradientUnits="userSpaceOnUse">
<stop stop-color="#696C82"/>
<stop offset="1" stop-color="#2A2D43"/>
</linearGradient>
<linearGradient id="paint19_linear_1_49227" x1="47.1233" y1="51.9467" x2="48.4987" y2="49.5646" gradientUnits="userSpaceOnUse">
<stop stop-color="#2A2D43"/>
<stop offset="0.6541" stop-color="#86889A"/>
<stop offset="0.7307" stop-color="#454650"/>
<stop offset="0.8705" stop-color="#61647B"/>
<stop offset="1" stop-color="#2A2D43"/>
</linearGradient>
<linearGradient id="paint20_linear_1_49227" x1="47.6669" y1="47.4073" x2="48.5149" y2="45.9383" gradientUnits="userSpaceOnUse">
<stop stop-color="#666984"/>
<stop offset="1" stop-color="#2A2D43"/>
</linearGradient>
<linearGradient id="paint21_linear_1_49227" x1="49.9153" y1="44.1961" x2="50.761" y2="42.7314" gradientUnits="userSpaceOnUse">
<stop stop-color="#717389"/>
<stop offset="1" stop-color="#2A2D43"/>
</linearGradient>
<linearGradient id="paint22_linear_1_49227" x1="51.169" y1="55.7702" x2="46.1055" y2="47.0002" gradientUnits="userSpaceOnUse">
<stop stop-color="#696D88"/>
<stop offset="1" stop-color="#2A2D43"/>
</linearGradient>
<linearGradient id="paint23_linear_1_49227" x1="61.6948" y1="37.7391" x2="61.6948" y2="53.2035" gradientUnits="userSpaceOnUse">
<stop offset="0.0319" stop-color="#2A2D43"/>
<stop offset="1" stop-color="#2A2D43" stop-opacity="0"/>
</linearGradient>
<linearGradient id="paint24_linear_1_49227" x1="62.0978" y1="47.7403" x2="62.0978" y2="33.2543" gradientUnits="userSpaceOnUse">
<stop stop-color="#696C85"/>
<stop offset="1" stop-color="#2A2D43"/>
</linearGradient>
<linearGradient id="paint25_linear_1_49227" x1="64.358" y1="37.5654" x2="64.9957" y2="36.4607" gradientUnits="userSpaceOnUse">
<stop stop-color="#696C82"/>
<stop offset="1" stop-color="#2A2D43"/>
</linearGradient>
<linearGradient id="paint26_linear_1_49227" x1="58.8421" y1="45.5405" x2="60.2174" y2="43.1583" gradientUnits="userSpaceOnUse">
<stop stop-color="#2A2D43"/>
<stop offset="0.6541" stop-color="#86889A"/>
<stop offset="0.7307" stop-color="#454650"/>
<stop offset="0.8705" stop-color="#61647B"/>
<stop offset="1" stop-color="#2A2D43"/>
</linearGradient>
<linearGradient id="paint27_linear_1_49227" x1="59.3855" y1="41.0011" x2="60.2335" y2="39.532" gradientUnits="userSpaceOnUse">
<stop stop-color="#666984"/>
<stop offset="1" stop-color="#2A2D43"/>
</linearGradient>
<linearGradient id="paint28_linear_1_49227" x1="61.6341" y1="37.7898" x2="62.4798" y2="36.3251" gradientUnits="userSpaceOnUse">
<stop stop-color="#717389"/>
<stop offset="1" stop-color="#2A2D43"/>
</linearGradient>
<linearGradient id="paint29_linear_1_49227" x1="62.8878" y1="49.3644" x2="57.8243" y2="40.5944" gradientUnits="userSpaceOnUse">
<stop stop-color="#696D88"/>
<stop offset="1" stop-color="#2A2D43"/>
</linearGradient>
</defs>
</svg>
