<svg width="24" height="24" viewBox="0 0 24 24" fill="none" xmlns="http://www.w3.org/2000/svg">
<g clip-path="url(#clip0_864_11264)">
<path d="M12.4297 23.9858C14.265 23.725 15.8739 21.8095 16.8863 18.9807C15.4227 18.6529 13.9292 18.477 12.4297 18.4561V23.9858Z" fill="black"/>
<path d="M15.3601 23.5359C15.4686 23.5045 15.5767 23.4729 15.6839 23.4381C15.7744 23.409 15.8636 23.3776 15.9528 23.3464C16.0584 23.3099 16.1635 23.2724 16.2682 23.2327C16.3574 23.1987 16.4458 23.1627 16.5344 23.1267C16.6366 23.0837 16.7386 23.041 16.8396 22.9981C16.9277 22.9593 17.0153 22.9187 17.1028 22.8779C17.2019 22.8312 17.3005 22.7836 17.3983 22.7342C17.4842 22.6904 17.5699 22.6458 17.6557 22.6C17.7519 22.5484 17.8474 22.4959 17.9422 22.4418C18.0281 22.3932 18.1108 22.3444 18.1944 22.2942C18.2874 22.237 18.38 22.1798 18.4719 22.1226C18.5542 22.0703 18.6363 22.0171 18.7174 21.9622C18.8078 21.9013 18.897 21.8378 18.9858 21.7744C19.0656 21.7172 19.145 21.6602 19.2229 21.6028C19.3088 21.5366 19.3968 21.4682 19.4828 21.3995C19.5593 21.3385 19.6355 21.278 19.7107 21.2154C19.7964 21.1442 19.8785 21.0704 19.9616 20.9967C20.0345 20.932 20.1078 20.8679 20.179 20.8015C20.2609 20.7251 20.3407 20.6459 20.4205 20.5674C20.4896 20.4991 20.5595 20.4319 20.6272 20.3619C20.6398 20.3489 20.6517 20.3349 20.6647 20.3215C19.7291 19.8383 18.7437 19.459 17.7257 19.1906C17.1962 20.879 16.254 22.4092 14.9844 23.6419C15.0191 23.6329 15.0539 23.6256 15.0887 23.6166C15.1804 23.5908 15.2705 23.5625 15.3601 23.5359Z" fill="black"/>
<path d="M23.9991 12.4388H18.8562C18.8368 14.4469 18.5454 16.443 17.9902 18.373C19.1224 18.6754 20.2151 19.1102 21.2455 19.6683C22.9373 17.6293 23.9057 15.0869 23.9991 12.4388Z" fill="black"/>
<path d="M12.4297 11.5809H18C17.9783 9.64387 17.6941 7.71874 17.1556 5.85791C15.6045 6.21165 14.0203 6.40056 12.4297 6.4215V11.5809Z" fill="black"/>
<path d="M12.4297 0.0339355V5.56366C13.9292 5.54251 15.4227 5.36679 16.8863 5.03902C15.8739 2.21018 14.265 0.294683 12.4297 0.0339355Z" fill="black"/>
<path d="M12.4297 17.5983C14.0203 17.6194 15.6045 17.8083 17.1556 18.1621C17.6941 16.3013 17.9783 14.3759 18 12.4388H12.4297V17.5983Z" fill="black"/>
<path d="M21.2455 4.35144C20.2151 4.90959 19.1224 5.34437 17.9902 5.6468C18.5454 7.57675 18.8368 9.57288 18.8562 11.5809H23.9991C23.9055 8.93305 22.9371 6.39071 21.2455 4.35144Z" fill="black"/>
<path d="M20.6661 3.70069C20.6535 3.68791 20.6416 3.67409 20.6292 3.6609C20.5614 3.59095 20.491 3.52351 20.4219 3.45544C20.3423 3.3769 20.2629 3.29753 20.1808 3.22129C20.1098 3.15511 20.0363 3.09249 19.9634 3.02652C19.8803 2.9528 19.7971 2.87845 19.7117 2.80724C19.6375 2.74462 19.5615 2.68472 19.4861 2.62461C19.4003 2.55508 19.3123 2.48596 19.2239 2.41957C19.1464 2.36114 19.0679 2.30459 18.9889 2.24805C18.8993 2.18354 18.8092 2.11924 18.7179 2.05788C18.6377 2.00384 18.5562 1.95107 18.4748 1.89934C18.382 1.83965 18.2894 1.78121 18.195 1.72467C18.1122 1.67503 18.0287 1.62602 17.9449 1.57848C17.849 1.52361 17.7528 1.47041 17.6559 1.41847C17.57 1.37554 17.4843 1.32883 17.3985 1.2859C17.2998 1.23605 17.2003 1.18809 17.0983 1.14097C17.0125 1.10013 16.9254 1.06034 16.837 1.02159C16.7354 0.976563 16.6328 0.935933 16.5304 0.892998C16.442 0.856976 16.354 0.821371 16.2648 0.787443C16.1607 0.74765 16.0552 0.710371 15.9496 0.673929C15.8604 0.642514 15.7712 0.611308 15.6807 0.581987C15.5734 0.54722 15.4662 0.515596 15.3561 0.483762C15.2668 0.457582 15.1772 0.430984 15.0869 0.407108C15.0524 0.397684 15.0172 0.390353 14.9824 0.381348C16.252 1.61408 17.1941 3.14401 17.7237 4.83269C18.7428 4.56419 19.7297 4.1847 20.6661 3.70069Z" fill="black"/>
<path d="M0 11.5809H5.1429C5.16237 9.57288 5.4537 7.57675 6.0087 5.6468C4.8767 5.34458 3.78408 4.9098 2.75366 4.35144C1.06184 6.3905 0.0934082 8.93305 0 11.5809Z" fill="black"/>
<path d="M11.5718 23.9858V18.4561C10.0723 18.4772 8.57877 18.6529 7.11523 18.9807C8.12744 21.8095 9.73653 23.725 11.5718 23.9858Z" fill="black"/>
<path d="M11.5704 12.4388H6C6.02178 14.3759 6.30578 16.3013 6.84444 18.1621C8.39552 17.8081 9.97948 17.6192 11.5704 17.5983V12.4388Z" fill="black"/>
<path d="M11.5718 0.0339355C9.73653 0.294683 8.12744 2.21018 7.11523 5.03902C8.57877 5.367 10.0723 5.54272 11.5718 5.56366V0.0339355Z" fill="black"/>
<path d="M11.5704 6.4215C9.97969 6.40056 8.39552 6.21165 6.84444 5.85791C6.30578 7.71874 6.02178 9.64387 6 11.5809H11.5704V6.4215Z" fill="black"/>
<path d="M9.01304 0.380981C8.97827 0.389987 8.9435 0.397317 8.90874 0.406323C8.81784 0.430618 8.7282 0.457635 8.63773 0.483814C8.53008 0.51523 8.42327 0.546854 8.3152 0.581202C8.22409 0.610732 8.13445 0.642147 8.04482 0.673353C7.93989 0.710423 7.83475 0.747284 7.73087 0.786658C7.64123 0.821005 7.55285 0.856609 7.46405 0.893051C7.36206 0.935985 7.25985 0.97892 7.15911 1.02164C7.07073 1.06039 6.9834 1.10102 6.89585 1.14186C6.79679 1.18856 6.69815 1.23611 6.60034 1.28553C6.51447 1.32931 6.4286 1.37412 6.34294 1.41978C6.24681 1.4713 6.15152 1.52408 6.05685 1.57811C5.97099 1.62608 5.88658 1.67529 5.80386 1.72556C5.71066 1.78169 5.61851 1.8397 5.52677 1.89708C5.44426 1.94986 5.36237 2.00306 5.28131 2.05793C5.19084 2.11888 5.10162 2.18234 5.01282 2.24579C4.93302 2.30297 4.85365 2.35994 4.77553 2.41753C4.68778 2.4835 4.604 2.5522 4.51562 2.62068C4.43938 2.68163 4.36252 2.74216 4.28796 2.8052C4.20209 2.87599 4.12062 2.94929 4.0379 3.02259C3.96459 3.08793 3.89066 3.15139 3.81904 3.21904C3.73757 3.29507 3.65819 3.37402 3.5786 3.45235C3.50949 3.52063 3.43912 3.58807 3.37126 3.65823C3.35891 3.67121 3.34697 3.68545 3.33398 3.69865C4.26932 4.18202 5.25493 4.56131 6.27299 4.82981C6.80244 3.14218 7.74407 1.61309 9.01304 0.380981Z" fill="black"/>
<path d="M3.57658 20.5643C3.65637 20.6428 3.73575 20.7222 3.81764 20.7986C3.88885 20.8646 3.96215 20.9272 4.03524 20.9932C4.11839 21.0671 4.20153 21.1413 4.28698 21.2125C4.36112 21.2747 4.43673 21.3348 4.51255 21.3951C4.59841 21.4646 4.68407 21.5338 4.77497 21.6006C4.85225 21.6586 4.93079 21.7147 5.00933 21.7723C5.09896 21.8366 5.18944 21.9009 5.28075 21.9627C5.36097 22.0167 5.44244 22.0695 5.52391 22.1214C5.61669 22.1809 5.70926 22.2393 5.80371 22.2959C5.88644 22.3457 5.97001 22.3945 6.05378 22.4423C6.1497 22.4972 6.24583 22.5504 6.3428 22.6021C6.42846 22.645 6.51433 22.6917 6.6002 22.7347C6.69884 22.7845 6.79832 22.8325 6.90032 22.8798C6.98619 22.9202 7.07331 22.96 7.16169 22.999C7.26327 23.044 7.36568 23.0846 7.46831 23.1276C7.55669 23.1636 7.64465 23.1992 7.73387 23.2331C7.83796 23.2731 7.94352 23.3104 8.04907 23.3468C8.13829 23.378 8.22751 23.4095 8.31799 23.4386C8.42522 23.4733 8.53245 23.5052 8.64261 23.5368C8.73183 23.563 8.82147 23.5896 8.91153 23.6137C8.94629 23.6231 8.98148 23.6304 9.01624 23.6394C7.74665 22.4065 6.80461 20.8765 6.27494 19.1879C5.25688 19.4566 4.27128 19.8359 3.33594 20.3194C3.3485 20.3322 3.36044 20.346 3.37301 20.3592C3.4373 20.4288 3.50663 20.4962 3.57658 20.5643Z" fill="black"/>
<path d="M2.75366 19.6683C3.78408 19.1102 4.8767 18.6754 6.0087 18.373C5.4537 16.443 5.16237 14.4469 5.1429 12.4388H0C0.0936176 15.0867 1.06184 17.6291 2.75366 19.6683Z" fill="black"/>
</g>
<defs>
<clipPath id="clip0_864_11264">
<rect width="24" height="24" fill="white"/>
</clipPath>
</defs>
</svg>
