<svg width="24" height="24" viewBox="0 0 24 24" fill="none" xmlns="http://www.w3.org/2000/svg">
<path d="M11.2333 14.4002H7.43333C6.92941 14.4002 6.44614 14.6004 6.08982 14.9567C5.7335 15.313 5.53333 15.7963 5.53333 16.3002V17.5669H6.79999V16.3002C6.79999 16.1322 6.86672 15.9711 6.98549 15.8524C7.10426 15.7336 7.26535 15.6669 7.43333 15.6669H11.2333C11.4013 15.6669 11.5624 15.7336 11.6812 15.8524C11.7999 15.9711 11.8667 16.1322 11.8667 16.3002V17.5669H13.1333V16.3002C13.1333 15.7963 12.9331 15.313 12.5768 14.9567C12.2205 14.6004 11.7372 14.4002 11.2333 14.4002ZM9.33333 13.7669C9.83437 13.7669 10.3242 13.6183 10.7408 13.3399C11.1574 13.0616 11.4821 12.6659 11.6738 12.203C11.8656 11.7401 11.9157 11.2307 11.818 10.7393C11.7202 10.2479 11.479 9.79649 11.1247 9.44219C10.7704 9.0879 10.319 8.84662 9.82755 8.74887C9.33614 8.65112 8.82677 8.70129 8.36386 8.89303C7.90095 9.08478 7.5053 9.40948 7.22694 9.82609C6.94857 10.2427 6.79999 10.7325 6.79999 11.2335C6.79999 11.9054 7.0669 12.5498 7.54199 13.0249C8.01708 13.5 8.66144 13.7669 9.33333 13.7669ZM9.33333 9.96686C9.58385 9.96686 9.82874 10.0412 10.037 10.1803C10.2453 10.3195 10.4077 10.5173 10.5036 10.7488C10.5994 10.9803 10.6245 11.2349 10.5757 11.4806C10.5268 11.7264 10.4061 11.9521 10.229 12.1292C10.0518 12.3063 9.82615 12.427 9.58044 12.4759C9.33473 12.5247 9.08005 12.4996 8.84859 12.4038C8.61714 12.3079 8.41931 12.1456 8.28013 11.9373C8.14095 11.729 8.06666 11.4841 8.06666 11.2335C8.06666 10.8976 8.20011 10.5754 8.43766 10.3379C8.6752 10.1003 8.99738 9.96686 9.33333 9.96686Z" fill="#2A2D43"/>
<path d="M9.33333 9.96686C9.58385 9.96686 9.82874 10.0412 10.037 10.1803C10.2453 10.3195 10.4077 10.5173 10.5036 10.7488C10.5994 10.9803 10.6245 11.2349 10.5757 11.4806C10.5268 11.7264 10.4061 11.9521 10.229 12.1292C10.0518 12.3063 9.82615 12.427 9.58044 12.4759C9.33473 12.5247 9.08005 12.4996 8.84859 12.4038C8.61714 12.3079 8.41931 12.1456 8.28013 11.9373C8.14095 11.729 8.06666 11.4841 8.06666 11.2335C8.06666 10.8976 8.20011 10.5754 8.43766 10.3379C8.6752 10.1003 8.99738 9.96686 9.33333 9.96686Z" fill="#2A2D43"/>
<path d="M6.79999 16.3002V17.5669H11.8667V16.3002C11.8667 16.1322 11.7999 15.9711 11.6812 15.8524C11.5624 15.7336 11.4013 15.6669 11.2333 15.6669H7.43333C7.26535 15.6669 7.10426 15.7336 6.98549 15.8524C6.86672 15.9711 6.79999 16.1322 6.79999 16.3002Z" fill="#2A2D43"/>
<path d="M19.4667 13.7665V19.4665H4.26667V6.79987H11.8667V5.5332H4.26667C3.93073 5.5332 3.60854 5.66666 3.371 5.9042C3.13345 6.14175 3 6.46393 3 6.79987V19.4665C3 19.8025 3.13345 20.1247 3.371 20.3622C3.60854 20.5998 3.93073 20.7332 4.26667 20.7332H19.4667C19.8026 20.7332 20.1248 20.5998 20.3623 20.3622C20.5999 20.1247 20.7333 19.8025 20.7333 19.4665V13.7665H19.4667Z" fill="#2A2D43"/>
<path d="M14.4 13.7667H18.2V15.0333H14.4V13.7667ZM15.6667 16.3H18.2V17.5667H15.6667V16.3ZM22 8.06667V6.8H20.6694C20.5877 6.40355 20.4303 6.02658 20.2058 5.68977L21.1495 4.7461L20.2539 3.85057L19.3103 4.79423C18.9735 4.56972 18.5965 4.41231 18.2 4.33063V3H16.9334V4.33063C16.5369 4.41231 16.1599 4.56972 15.8231 4.79423L14.8795 3.85057L13.9839 4.7461L14.9276 5.68977C14.7031 6.02658 14.5457 6.40355 14.464 6.8H13.1334V8.06667H14.464C14.5457 8.46312 14.7031 8.84009 14.9276 9.1769L13.9839 10.1206L14.8795 11.0161L15.8231 10.0724C16.1599 10.2969 16.5369 10.4544 16.9334 10.536V11.8667H18.2V10.536C18.5965 10.4544 18.9735 10.2969 19.3103 10.0724L20.2539 11.0161L21.1495 10.1206L20.2058 9.1769C20.4303 8.84009 20.5877 8.46312 20.6694 8.06667H22ZM17.5667 9.33333C17.1909 9.33333 16.8236 9.2219 16.5111 9.01313C16.1987 8.80435 15.9551 8.50761 15.8113 8.16043C15.6675 7.81325 15.6299 7.43123 15.7032 7.06266C15.7765 6.6941 15.9575 6.35555 16.2232 6.08983C16.4889 5.82411 16.8275 5.64315 17.196 5.56984C17.5646 5.49653 17.9466 5.53416 18.2938 5.67796C18.641 5.82177 18.9377 6.0653 19.1465 6.37775C19.3553 6.6902 19.4667 7.05755 19.4667 7.43333C19.4662 7.93709 19.2659 8.42007 18.9096 8.77628C18.5534 9.13249 18.0705 9.33283 17.5667 9.33333Z" fill="#2A2D43"/>
</svg>
