<svg width="27" height="23" viewBox="0 0 27 23" fill="none" xmlns="http://www.w3.org/2000/svg">
<path d="M13.1039 14.5283C13.1039 15.0235 13.5053 15.4249 14.0005 15.4249C14.4956 15.4249 14.897 15.0235 14.897 14.5283H13.1039ZM14.6344 0.296661C14.2843 -0.0534639 13.7167 -0.0534639 13.3665 0.296661L7.66091 6.00228C7.31078 6.35241 7.31078 6.92007 7.66091 7.2702C8.01104 7.62032 8.5787 7.62032 8.92883 7.2702L14.0005 2.19853L19.0722 7.2702C19.4223 7.62032 19.9899 7.62032 20.3401 7.2702C20.6902 6.92007 20.6902 6.35241 20.3401 6.00228L14.6344 0.296661ZM14.897 14.5283V0.930619H13.1039V14.5283H14.897Z" fill="#F2385F"/>
<path d="M1.44873 7.72949V20.0571C1.44873 21.0474 2.25153 21.8502 3.24184 21.8502H24.2361C25.2264 21.8502 26.0292 21.0474 26.0292 20.0571V7.72949" stroke="#F2385F" stroke-width="1.7931" stroke-linecap="round"/>
</svg>
