<svg width="104" height="80" viewBox="0 0 104 80" fill="none" xmlns="http://www.w3.org/2000/svg">
<rect x="0.298851" y="0.298851" width="103.402" height="79.4023" rx="5.67816" stroke="#2A2D43" stroke-width="0.597701" stroke-linecap="square" stroke-dasharray="4.18 3.59"/>
<path d="M20.605 52.4544V56.4136C20.605 56.9428 20.7198 57.3412 20.9493 57.609C21.1852 57.8704 21.5231 58.0011 21.963 58.0011C22.3965 58.0011 22.7281 57.8704 22.9576 57.609C23.1935 57.3412 23.3114 56.9428 23.3114 56.4136V52.4544H24.6503V56.4136C24.6503 57.0384 24.5323 57.5676 24.2964 58.0011C24.0669 58.4282 23.745 58.747 23.3305 58.9574C22.9225 59.1678 22.4571 59.273 21.9343 59.273C21.1246 59.273 20.4775 59.0307 19.993 58.5462C19.5084 58.0617 19.2662 57.3508 19.2662 56.4136V52.4544H20.605ZM28.9979 53.8411C29.4442 53.8411 29.8458 53.9495 30.2028 54.1662C30.5599 54.383 30.8372 54.6986 31.0348 55.113C31.2389 55.521 31.3409 56.0024 31.3409 56.557C31.3409 57.1117 31.2389 57.5962 31.0348 58.0107C30.8372 58.4187 30.5599 58.7311 30.2028 58.9478C29.8458 59.1646 29.4442 59.273 28.9979 59.273C28.5516 59.273 28.1691 59.1678 27.8503 58.9574C27.5379 58.7406 27.3147 58.4537 27.1809 58.0967V61.7307H25.8324V53.908H27.1809V55.0078C27.3147 54.6508 27.5379 54.3671 27.8503 54.1567C28.1691 53.9463 28.5516 53.8411 28.9979 53.8411ZM28.5771 55.0174C28.1691 55.0174 27.8312 55.1576 27.5634 55.4381C27.302 55.7123 27.1713 56.0853 27.1713 56.557C27.1713 57.0225 27.302 57.3954 27.5634 57.6759C27.8312 57.9501 28.1691 58.0872 28.5771 58.0872C28.9979 58.0872 29.3358 57.9533 29.5908 57.6855C29.8458 57.4114 29.9733 57.0352 29.9733 56.557C29.9733 56.0789 29.8458 55.7027 29.5908 55.4286C29.3358 55.1544 28.9979 55.0174 28.5771 55.0174ZM33.6435 52.1293V59.2061H32.2951V52.1293H33.6435ZM37.3115 53.8411C37.8279 53.8411 38.2902 53.9495 38.6982 54.1662C39.1126 54.383 39.4377 54.6986 39.6736 55.113C39.9095 55.521 40.0275 56.0024 40.0275 56.557C40.0275 57.1117 39.9095 57.5931 39.6736 58.0011C39.4377 58.4091 39.1126 58.7247 38.6982 58.9478C38.2902 59.1646 37.8279 59.273 37.3115 59.273C36.7951 59.273 36.3297 59.1646 35.9153 58.9478C35.5073 58.7247 35.1853 58.4091 34.9494 58.0011C34.7135 57.5931 34.5956 57.1117 34.5956 56.557C34.5956 56.0024 34.7135 55.521 34.9494 55.113C35.1853 54.6986 35.5073 54.383 35.9153 54.1662C36.3297 53.9495 36.7951 53.8411 37.3115 53.8411ZM37.3115 55.0078C36.9354 55.0078 36.6166 55.1417 36.3552 55.4095C36.0938 55.6709 35.9631 56.0534 35.9631 56.557C35.9631 57.0607 36.0938 57.4464 36.3552 57.7142C36.6166 57.9756 36.9354 58.1063 37.3115 58.1063C37.6877 58.1063 38.0065 57.9756 38.2678 57.7142C38.5292 57.4464 38.6599 57.0607 38.6599 56.557C38.6599 56.0534 38.5292 55.6709 38.2678 55.4095C38.0065 55.1417 37.6877 55.0078 37.3115 55.0078ZM43.0557 53.8411C43.5019 53.8411 43.8845 53.9463 44.2032 54.1567C44.522 54.3671 44.7483 54.6508 44.8822 55.0078V53.908H46.2211V59.2061H44.8822V58.0967C44.7483 58.4537 44.522 58.7406 44.2032 58.9574C43.8845 59.1678 43.5019 59.273 43.0557 59.273C42.6094 59.273 42.2077 59.1646 41.8507 58.9478C41.4937 58.7311 41.2131 58.4187 41.0091 58.0107C40.8115 57.5962 40.7127 57.1117 40.7127 56.557C40.7127 56.0024 40.8115 55.521 41.0091 55.113C41.2131 54.6986 41.4937 54.383 41.8507 54.1662C42.2077 53.9495 42.6094 53.8411 43.0557 53.8411ZM43.4764 55.0174C43.0557 55.0174 42.7178 55.1544 42.4627 55.4286C42.2077 55.7027 42.0802 56.0789 42.0802 56.557C42.0802 57.0352 42.2077 57.4114 42.4627 57.6855C42.7178 57.9533 43.0557 58.0872 43.4764 58.0872C43.8845 58.0872 44.2192 57.9501 44.4806 57.6759C44.7483 57.3954 44.8822 57.0225 44.8822 56.557C44.8822 56.0853 44.7483 55.7123 44.4806 55.4381C44.2192 55.1576 43.8845 55.0174 43.4764 55.0174ZM49.5183 53.8411C49.9646 53.8411 50.3439 53.9463 50.6563 54.1567C50.9751 54.3671 51.2046 54.6508 51.3449 55.0078V52.1293H52.6837V59.2061H51.3449V58.0967C51.2046 58.4537 50.9751 58.7406 50.6563 58.9574C50.3439 59.1678 49.9646 59.273 49.5183 59.273C49.072 59.273 48.6704 59.1646 48.3133 58.9478C47.9563 58.7311 47.6758 58.4187 47.4718 58.0107C47.2741 57.5962 47.1753 57.1117 47.1753 56.557C47.1753 56.0024 47.2741 55.521 47.4718 55.113C47.6758 54.6986 47.9563 54.383 48.3133 54.1662C48.6704 53.9495 49.072 53.8411 49.5183 53.8411ZM49.9391 55.0174C49.5183 55.0174 49.1804 55.1544 48.9254 55.4286C48.6704 55.7027 48.5429 56.0789 48.5429 56.557C48.5429 57.0352 48.6704 57.4114 48.9254 57.6855C49.1804 57.9533 49.5183 58.0872 49.9391 58.0872C50.3471 58.0872 50.6818 57.9501 50.9432 57.6759C51.211 57.3954 51.3449 57.0225 51.3449 56.557C51.3449 56.0853 51.211 55.7123 50.9432 55.4381C50.6818 55.1576 50.3471 55.0174 49.9391 55.0174ZM63.2659 52.5309V59.2061H61.9271V54.5488L60.2153 59.2061H59.0486L57.3368 54.5679V59.2061H55.9883V52.5309H57.6236L59.6511 57.5516L61.6402 52.5309H63.2659ZM69.4693 56.3562C69.4693 56.4901 69.4534 56.6431 69.4215 56.8153H65.5389C65.558 57.287 65.6855 57.6345 65.9214 57.8576C66.1573 58.0808 66.4505 58.1924 66.8012 58.1924C67.1136 58.1924 67.3718 58.1158 67.5758 57.9628C67.7862 57.8098 67.9201 57.6026 67.9775 57.3412H69.4024C69.3323 57.711 69.1824 58.0425 68.9529 58.3358C68.7234 58.6291 68.4269 58.8586 68.0635 59.0244C67.7065 59.1901 67.3081 59.273 66.8681 59.273C66.3517 59.273 65.8927 59.1646 65.491 58.9478C65.0894 58.7247 64.777 58.4091 64.5538 58.0011C64.3307 57.5931 64.2191 57.1117 64.2191 56.557C64.2191 56.0024 64.3307 55.521 64.5538 55.113C64.777 54.6986 65.0894 54.383 65.491 54.1662C65.8927 53.9495 66.3517 53.8411 66.8681 53.8411C67.3909 53.8411 67.8468 53.9495 68.2357 54.1662C68.631 54.383 68.9338 54.6827 69.1442 55.0652C69.361 55.4413 69.4693 55.8717 69.4693 56.3562ZM68.1114 56.2223C68.1305 55.7888 68.0157 55.4605 67.7671 55.2373C67.5248 55.0142 67.2252 54.9026 66.8681 54.9026C66.5047 54.9026 66.1987 55.0142 65.9501 55.2373C65.7014 55.4605 65.5644 55.7888 65.5389 56.2223H68.1114ZM72.5018 53.8411C72.9481 53.8411 73.3274 53.9463 73.6398 54.1567C73.9586 54.3671 74.1881 54.6508 74.3284 55.0078V52.1293H75.6672V59.2061H74.3284V58.0967C74.1881 58.4537 73.9586 58.7406 73.6398 58.9574C73.3274 59.1678 72.9481 59.273 72.5018 59.273C72.0555 59.273 71.6538 59.1646 71.2968 58.9478C70.9398 58.7311 70.6593 58.4187 70.4552 58.0107C70.2576 57.5962 70.1588 57.1117 70.1588 56.557C70.1588 56.0024 70.2576 55.521 70.4552 55.113C70.6593 54.6986 70.9398 54.383 71.2968 54.1662C71.6538 53.9495 72.0555 53.8411 72.5018 53.8411ZM72.9226 55.0174C72.5018 55.0174 72.1639 55.1544 71.9089 55.4286C71.6538 55.7027 71.5263 56.0789 71.5263 56.557C71.5263 57.0352 71.6538 57.4114 71.9089 57.6855C72.1639 57.9533 72.5018 58.0872 72.9226 58.0872C73.3306 58.0872 73.6653 57.9501 73.9267 57.6759C74.1945 57.3954 74.3284 57.0225 74.3284 56.557C74.3284 56.0853 74.1945 55.7123 73.9267 55.4381C73.6653 55.1576 73.3306 55.0174 72.9226 55.0174ZM76.7362 52.3875C76.7362 52.1707 76.8127 51.9954 76.9657 51.8615C77.1187 51.7212 77.3196 51.6511 77.5682 51.6511C77.8168 51.6511 78.0177 51.7212 78.1707 51.8615C78.3237 51.9954 78.4002 52.1707 78.4002 52.3875C78.4002 52.5979 78.3237 52.7732 78.1707 52.9135C78.0177 53.0473 77.8168 53.1143 77.5682 53.1143C77.3196 53.1143 77.1187 53.0473 76.9657 52.9135C76.8127 52.7732 76.7362 52.5979 76.7362 52.3875ZM78.2376 53.908V59.2061H76.8892V53.908H78.2376ZM81.5327 53.8411C81.9789 53.8411 82.3615 53.9463 82.6802 54.1567C82.999 54.3671 83.2254 54.6508 83.3592 55.0078V53.908H84.6981V59.2061H83.3592V58.0967C83.2254 58.4537 82.999 58.7406 82.6802 58.9574C82.3615 59.1678 81.9789 59.273 81.5327 59.273C81.0864 59.273 80.6847 59.1646 80.3277 58.9478C79.9707 58.7311 79.6901 58.4187 79.4861 58.0107C79.2885 57.5962 79.1897 57.1117 79.1897 56.557C79.1897 56.0024 79.2885 55.521 79.4861 55.113C79.6901 54.6986 79.9707 54.383 80.3277 54.1662C80.6847 53.9495 81.0864 53.8411 81.5327 53.8411ZM81.9534 55.0174C81.5327 55.0174 81.1948 55.1544 80.9397 55.4286C80.6847 55.7027 80.5572 56.0789 80.5572 56.557C80.5572 57.0352 80.6847 57.4114 80.9397 57.6855C81.1948 57.9533 81.5327 58.0872 81.9534 58.0872C82.3615 58.0872 82.6962 57.9501 82.9576 57.6759C83.2254 57.3954 83.3592 57.0225 83.3592 56.557C83.3592 56.0853 83.2254 55.7123 82.9576 55.4381C82.6962 55.1576 82.3615 55.0174 81.9534 55.0174Z" fill="#2A2D43"/>
<path d="M51.1039 31.5283C51.1039 32.0235 51.5053 32.4249 52.0005 32.4249C52.4956 32.4249 52.897 32.0235 52.897 31.5283H51.1039ZM52.6344 17.2967C52.2843 16.9465 51.7167 16.9465 51.3665 17.2967L45.6609 23.0023C45.3108 23.3524 45.3108 23.9201 45.6609 24.2702C46.011 24.6203 46.5787 24.6203 46.9288 24.2702L52.0005 19.1985L57.0722 24.2702C57.4223 24.6203 57.9899 24.6203 58.3401 24.2702C58.6902 23.9201 58.6902 23.3524 58.3401 23.0023L52.6344 17.2967ZM52.897 31.5283V17.9306H51.1039V31.5283H52.897Z" fill="#F2385F"/>
<path d="M39.4487 24.7295V37.0571C39.4487 38.0474 40.2515 38.8502 41.2418 38.8502H62.2361C63.2264 38.8502 64.0292 38.0474 64.0292 37.0571V24.7295" stroke="#F2385F" stroke-width="1.7931" stroke-linecap="round"/>
</svg>
