<svg width="19" height="19" viewBox="0 0 19 19" fill="none" xmlns="http://www.w3.org/2000/svg">
<path d="M14.8327 10.8332C14.6117 10.8332 14.3997 10.921 14.2434 11.0773C14.0871 11.2336 13.9993 11.4456 13.9993 11.6666V11.9832L12.766 10.7499C12.3305 10.3179 11.742 10.0754 11.1285 10.0754C10.5151 10.0754 9.9265 10.3179 9.49102 10.7499L8.90768 11.3332L6.84102 9.26658C6.39945 8.84625 5.81315 8.61182 5.20352 8.61182C4.59388 8.61182 4.00758 8.84625 3.56602 9.26658L2.33268 10.4999V5.83325C2.33268 5.61223 2.42048 5.40027 2.57676 5.24399C2.73304 5.08771 2.945 4.99991 3.16602 4.99991H8.99935C9.22036 4.99991 9.43232 4.91212 9.5886 4.75584C9.74488 4.59956 9.83268 4.38759 9.83268 4.16658C9.83268 3.94557 9.74488 3.73361 9.5886 3.57732C9.43232 3.42104 9.22036 3.33325 8.99935 3.33325H3.16602C2.50297 3.33325 1.86709 3.59664 1.39825 4.06548C0.929408 4.53432 0.666016 5.17021 0.666016 5.83325V15.8332C0.666016 16.4963 0.929408 17.1322 1.39825 17.601C1.86709 18.0699 2.50297 18.3332 3.16602 18.3332H13.166C13.8291 18.3332 14.4649 18.0699 14.9338 17.601C15.4026 17.1322 15.666 16.4963 15.666 15.8332V11.6666C15.666 11.4456 15.5782 11.2336 15.4219 11.0773C15.2657 10.921 15.0537 10.8332 14.8327 10.8332ZM3.16602 16.6666C2.945 16.6666 2.73304 16.5788 2.57676 16.4225C2.42048 16.2662 2.33268 16.0543 2.33268 15.8332V12.8582L4.74935 10.4416C4.87178 10.3249 5.0344 10.2598 5.20352 10.2598C5.37263 10.2598 5.53526 10.3249 5.65768 10.4416L8.29935 13.0832L11.8827 16.6666H3.16602ZM13.9993 15.8332C13.9981 15.9928 13.9455 16.1477 13.8493 16.2749L10.091 12.4999L10.6743 11.9166C10.7341 11.8556 10.8054 11.8072 10.8841 11.7741C10.9628 11.741 11.0473 11.724 11.1327 11.724C11.218 11.724 11.3026 11.741 11.3813 11.7741C11.46 11.8072 11.5313 11.8556 11.591 11.9166L13.9993 14.3416V15.8332ZM17.9243 3.57491L15.4243 1.07491C15.3451 0.999046 15.2516 0.939576 15.1493 0.899914C14.9465 0.816565 14.7189 0.816565 14.516 0.899914C14.4137 0.939576 14.3203 0.999046 14.241 1.07491L11.741 3.57491C11.5841 3.73183 11.4959 3.94466 11.4959 4.16658C11.4959 4.3885 11.5841 4.60133 11.741 4.75825C11.8979 4.91517 12.1108 5.00332 12.3327 5.00332C12.5546 5.00332 12.7674 4.91517 12.9243 4.75825L13.9993 3.67491V8.33325C13.9993 8.55426 14.0871 8.76622 14.2434 8.9225C14.3997 9.07878 14.6117 9.16658 14.8327 9.16658C15.0537 9.16658 15.2657 9.07878 15.4219 8.9225C15.5782 8.76622 15.666 8.55426 15.666 8.33325V3.67491L16.741 4.75825C16.8185 4.83635 16.9107 4.89835 17.0122 4.94066C17.1138 4.98296 17.2227 5.00475 17.3327 5.00475C17.4427 5.00475 17.5516 4.98296 17.6532 4.94066C17.7547 4.89835 17.8469 4.83635 17.9243 4.75825C18.0025 4.68078 18.0645 4.58861 18.1068 4.48706C18.1491 4.38551 18.1708 4.27659 18.1708 4.16658C18.1708 4.05657 18.1491 3.94765 18.1068 3.8461C18.0645 3.74455 18.0025 3.65238 17.9243 3.57491Z" fill="white"/>
</svg>
